<?xml version="1.0" encoding="utf-8"?>
<!-- Generator: Adobe Illustrator 22.1.0, SVG Export Plug-In . SVG Version: 6.00 Build 0)  -->
<svg version="1.1" id="Vrstva_1" xmlns="http://www.w3.org/2000/svg" xmlns:xlink="http://www.w3.org/1999/xlink" x="0px" y="0px"
	 viewBox="0 0 46.4 46.2" style="enable-background:new 0 0 46.4 46.2;" xml:space="preserve">
<style type="text/css">
	.st0{clip-path:url(#SVGID_2_);fill:none;stroke:#d9c37c;stroke-width:1.2;}
	.st1{fill:none;stroke:#d9c37c;stroke-width:1.2;}
	.st2{clip-path:url(#SVGID_4_);fill:none;stroke:#d9c37c;stroke-width:1.2;}
</style>
<g>
	<defs>
		<rect id="SVGID_1_" y="0" width="46.4" height="46.2"/>
	</defs>
	<clipPath id="SVGID_2_">
		<use xlink:href="#SVGID_1_"  style="overflow:visible;"/>
	</clipPath>
	<line class="st0" x1="31.6" y1="36.4" x2="37.9" y2="45.9"/>
	<line class="st0" x1="8.5" y1="45.9" x2="14.8" y2="36.4"/>
	<line class="st0" x1="23.2" y1="35.9" x2="23.2" y2="45.9"/>
	<polyline class="st0" points="32.5,0.8 45.8,0.8 45.8,36.3 0.6,36.3 0.6,0.8 13.9,0.8 	"/>
</g>
<polygon class="st1" points="17.8,4.4 42.2,4.4 42.2,32.7 4.2,32.7 4.2,4.4 8.7,4.4 "/>
<g>
	<defs>
		<rect id="SVGID_3_" y="0" width="46.4" height="46.2"/>
	</defs>
	<clipPath id="SVGID_4_">
		<use xlink:href="#SVGID_3_"  style="overflow:visible;"/>
	</clipPath>
	<rect x="17.2" y="0.6" class="st2" width="12" height="3.6"/>
</g>
<line class="st1" x1="19.5" y1="24.7" x2="19.5" y2="13.7"/>
<line class="st1" x1="14.9" y1="24.7" x2="14.9" y2="21"/>
<line class="st1" x1="10.2" y1="24.7" x2="10.2" y2="17.8"/>
<line class="st1" x1="19.5" y1="28.6" x2="19.5" y2="26.5"/>
<line class="st1" x1="14.9" y1="28.6" x2="14.9" y2="26.5"/>
<line class="st1" x1="10.2" y1="28.6" x2="10.2" y2="26.5"/>
<line class="st1" x1="9.2" y1="10.6" x2="16.2" y2="10.6"/>
<line class="st1" x1="24.6" y1="14.9" x2="37.5" y2="14.9"/>
<line class="st1" x1="24.6" y1="19.2" x2="37.5" y2="19.2"/>
<line class="st1" x1="24.6" y1="23.5" x2="37.5" y2="23.5"/>
</svg>
