<?xml version="1.0" encoding="utf-8"?>
<!-- Generator: Adobe Illustrator 22.1.0, SVG Export Plug-In . SVG Version: 6.00 Build 0)  -->
<svg version="1.1" id="icons" xmlns="http://www.w3.org/2000/svg" xmlns:xlink="http://www.w3.org/1999/xlink" x="0px" y="0px"
	 viewBox="0 0 64 64" style="enable-background:new 0 0 64 64;" xml:space="preserve">
<style type="text/css">
	.st0{fill:none;stroke:#000000;stroke-width:2;stroke-linejoin:round;stroke-miterlimit:10;}
</style>
<g>
	<path class="st0" d="M60,32c0,1.4-2.6,2.6-2.8,4c-0.2,1.4,1.9,3.3,1.4,4.7c-0.4,1.3-3.3,1.7-3.9,2.9c-0.6,1.3,0.7,3.8-0.1,4.9
		C53.8,49.6,51,49,50,50c-1,1-0.4,3.8-1.6,4.6c-1.1,0.8-3.6-0.6-4.9,0.1c-1.2,0.6-1.6,3.5-2.9,3.9c-1.3,0.4-3.3-1.7-4.7-1.4
		c-1.4,0.2-2.6,2.8-4,2.8c-1.4,0-2.6-2.6-4-2.8c-1.4-0.2-3.3,1.9-4.7,1.4c-1.3-0.4-1.7-3.3-2.9-3.9c-1.3-0.6-3.7,0.7-4.9-0.1
		C14.4,53.8,15,51,14,50c-1-1-3.8-0.4-4.6-1.6c-0.8-1.1,0.6-3.6-0.1-4.9c-0.6-1.2-3.5-1.6-3.9-2.9C4.9,39.3,7,37.4,6.8,36
		C6.6,34.6,4,33.4,4,32c0-1.4,2.6-2.6,2.8-4c0.2-1.4-1.9-3.3-1.4-4.7c0.4-1.3,3.3-1.7,3.9-2.9c0.6-1.3-0.7-3.7,0.1-4.9
		C10.2,14.4,13,15,14,14c1-1,0.4-3.8,1.6-4.6c1.1-0.8,3.6,0.6,4.9-0.1c1.2-0.6,1.6-3.5,2.9-3.9C24.7,4.9,26.6,7,28,6.8
		C29.4,6.6,30.6,4,32,4c1.4,0,2.6,2.6,4,2.8c1.4,0.2,3.3-1.9,4.7-1.4c1.3,0.4,1.7,3.3,2.9,3.9c1.3,0.6,3.8-0.7,4.9,0.1
		C49.6,10.2,49,13,50,14c1,1,3.8,0.4,4.6,1.6c0.8,1.1-0.6,3.6,0.1,4.9c0.6,1.2,3.5,1.6,3.9,2.9c0.4,1.3-1.7,3.3-1.4,4.7
		C57.4,29.4,60,30.6,60,32z"/>
	<path class="st0" d="M50.1,32c0,10-8.1,18.1-18.1,18.1C22,50.1,13.9,42,13.9,32S22,13.9,32,13.9C42,13.9,50.1,22,50.1,32z"/>
</g>
<path d="M34,26.6c-3.6,0-6.3,2.3-6.3,6.5c0,3.6,2.1,4.4,4.4,4.4c1.2,0,2.3-0.3,3.4-1l0.3-1.7h-4.5l0.6-3.7h9.1l-1.1,7.1
	c-1.6,2.4-5.3,3.7-8.9,3.7c-5.6,0-9.4-3.6-8.7-9.6c0.7-6.5,5.8-10.2,12.4-10.2c2.8,0,5.1,0.7,6.9,2.8l-0.8,4.5h-4.4l0.2-2.3
	C35.9,26.7,34.8,26.6,34,26.6z"/>
</svg>
