<?xml version="1.0" encoding="utf-8"?>
<!-- Generator: Adobe Illustrator 22.1.0, SVG Export Plug-In . SVG Version: 6.00 Build 0)  -->
<svg version="1.1" id="Izolovaný_režim" xmlns="http://www.w3.org/2000/svg" xmlns:xlink="http://www.w3.org/1999/xlink" x="0px"
	 y="0px" viewBox="0 0 105.1 58.4" style="enable-background:new 0 0 105.1 58.4;" xml:space="preserve">
<style type="text/css">
	.st0{fill:none;stroke:#fff;stroke-width:3;}
</style>
<g>
	<g>
		<path class="st0" d="M26.8,28.1c0,4.3,0.1,4.6,0.1,8.9c0.1,4.2,2.2,7.3,10.9,11.4c5.2,2.4,10.2,4.2,15,5.2l-0.4-15.3"/>
		<path class="st0" d="M78.3,28.6c0,4.3,0.1,3.6,0.1,7.9c0,4.2-2,7.4-10.7,11.6c-5.2,2.5-10.1,4.4-14.9,5.5l-0.4-15.3"/>
	</g>
	<path class="st0" d="M52.7,39L4.2,20.7L52.4,1.6l48.6,18.2L52.7,39z"/>
	<path class="st0" d="M57.6,17.5L85,26.3l0.1,16.3"/>
	<path class="st0" d="M57.8,15.3c0,1.5-2.3,2.7-5.3,2.7c-2.9,0-5.3-1.2-5.3-2.6c0-1.5,2.3-2.7,5.3-2.7
		C55.4,12.6,57.8,13.8,57.8,15.3z"/>
	<path class="st0" d="M89.6,56.9v-8.7c0-2.7-1.9-5-4.2-5c-2.3,0-4.2,2.2-4.2,5v8.7H89.6z"/>
</g>
</svg>
