<?xml version="1.0" encoding="utf-8"?>
<!-- Generator: Adobe Illustrator 22.1.0, SVG Export Plug-In . SVG Version: 6.00 Build 0)  -->
<svg version="1.1" id="Icons" xmlns="http://www.w3.org/2000/svg" xmlns:xlink="http://www.w3.org/1999/xlink" x="0px" y="0px"
	 viewBox="0 0 58.7 34.1" style="enable-background:new 0 0 58.7 34.1;" xml:space="preserve">
<style type="text/css">
	.st0{fill:none;stroke:#222222;stroke-width:1.2;stroke-miterlimit:10;stroke-dasharray:3.068,4.72;}
	.st1{fill:none;stroke:#222222;stroke-width:1.2;stroke-miterlimit:10;}
	.st2{fill:#222222;}
</style>
<g id="_x35_">
	<line class="st0" x1="8.2" y1="28.2" x2="52.9" y2="28.2"/>
	<line class="st0" x1="8.2" y1="5.9" x2="52.9" y2="5.9"/>
	<path class="st1" d="M0.6,29.1v4.4h57.5v-4.4c-1.7-0.9-3-2.7-3-4.8c0-2.1,1.2-3.9,3-4.8v-5c-1.7-0.9-3-2.7-3-4.8
		c0-2.1,1.2-3.9,3-4.8V0.6H0.6V5"/>
	<line class="st1" x1="0.6" y1="4.4" x2="0.6" y2="30.4"/>
</g>
<g>
	<path class="st2" d="M26.4,22.7H24v-7.9h-3v-1.6c2.3,0,2.9-0.4,3.4-1.9h2.1V22.7z"/>
	<path class="st2" d="M37.8,22.7h-2.8l-1.6-2.4l-1.5,2.4H29l3-4.4l-2.7-4H32l1.4,2.1l1.3-2.1h2.7l-2.7,4L37.8,22.7z"/>
</g>
</svg>
