<?xml version="1.0" encoding="utf-8"?>
<!-- Generator: Adobe Illustrator 22.1.0, SVG Export Plug-In . SVG Version: 6.00 Build 0)  -->
<svg version="1.1" id="Icons" xmlns="http://www.w3.org/2000/svg" xmlns:xlink="http://www.w3.org/1999/xlink" x="0px" y="0px"
	 viewBox="0 0 86.6 86.2" style="enable-background:new 0 0 86.6 86.2;" xml:space="preserve">
<style type="text/css">
	.st0{fill:none;stroke:#fff;stroke-width:2;}
	.st1{fill:none;stroke:#fff;stroke-width:2;stroke-linecap:round;stroke-linejoin:round;}
</style>
<g>
	<path class="st0" d="M32.4,45.2l-6.6,6.6l-7,7c-4.6-1.4-9.8-0.3-13.5,3.4C1.5,66,0.4,71.6,2.2,76.4l8.1-8.1l6.3,1.7l1.7,6.3
		l-8.1,8.1c4.8,1.8,10.4,0.7,14.2-3.1c3.7-3.7,4.8-8.9,3.4-13.5l7-7l7.3-7.3"/>
	<path class="st0" d="M51.5,44.1l9.7-9.7l7-7c4.6,1.4,9.8,0.3,13.5-3.4c3.8-3.8,4.9-9.4,3.1-14.2L76.6,18l-6.3-1.7L68.6,10l8.1-8.1
		C72,0.1,66.4,1.1,62.5,5c-3.6,3.6-4.8,8.9-3.4,13.5l-7,7l-8.3,8.3"/>
	<g>
		<path class="st0" d="M55.3,43.5c-0.7-0.7-1.9-0.7-2.6,0l-1.1,1.1c-0.1-0.3-0.3-0.5-0.5-0.8L47,39.8l-8.8,8.8l4.1,4.1
			c0.2,0.2,0.5,0.4,0.8,0.5l-1.1,1.1c-0.7,0.7-0.7,1.9,0,2.6l26.9,26.9c0.7,0.7,1.9,0.7,2.6,0L82.1,73c0.7-0.7,0.7-1.9,0-2.6
			L55.3,43.5z"/>
		<line class="st0" x1="42.7" y1="44.3" x2="10.7" y2="12.4"/>
		<polygon class="st0" points="12.1,14.6 6.5,14 1.3,5.8 4.2,2.9 12.4,8.1 12.9,13.7 		"/>
		<line class="st1" x1="53.1" y1="54.7" x2="71" y2="72.6"/>
		<line class="st0" x1="40.8" y1="55.8" x2="54.1" y2="42.4"/>
	</g>
</g>
</svg>
