<?xml version="1.0" encoding="utf-8"?>
<!-- Generator: Adobe Illustrator 22.1.0, SVG Export Plug-In . SVG Version: 6.00 Build 0)  -->
<svg version="1.1" id="icons" xmlns="http://www.w3.org/2000/svg" xmlns:xlink="http://www.w3.org/1999/xlink" x="0px" y="0px"
	 viewBox="0 0 52.2 46.4" style="enable-background:new 0 0 52.2 46.4;" xml:space="preserve">
<style type="text/css">
	.st0{fill:none;stroke:#d9c37c;stroke-width:1.2;}
</style>
<g>
	<g>
		<g>
			<g>
				<path class="st0" d="M14.2,2.1c-1.1,1.2-1.6,2.7-1.3,4.2c1.5,0.2,3.1-0.3,4.2-1.4c1.1-1.2,1.6-2.7,1.3-4.2
					C16.9,0.4,15.4,0.9,14.2,2.1z"/>
				<path class="st0" d="M6,8.5c0.1,1.6,1,2.9,2.3,3.6c1.1-1,1.7-2.4,1.6-4c-0.1-1.6-1-2.9-2.3-3.6C6.5,5.5,5.9,6.9,6,8.5z"/>
				<path class="st0" d="M2,18.6c0.8,1.4,2.2,2.2,3.6,2.3c0.6-1.3,0.6-2.9-0.2-4.3c-0.8-1.4-2.2-2.2-3.6-2.3
					C1.2,15.7,1.2,17.3,2,18.6z"/>
				<path class="st0" d="M2.6,29.5c1.3,0.9,2.9,1.1,4.3,0.6c0-1.5-0.7-2.9-2-3.8c-1.3-0.9-2.9-1.1-4.3-0.6
					C0.6,27.2,1.3,28.6,2.6,29.5z"/>
				<path class="st0" d="M7.8,39.1c1.6,0.3,3.1-0.3,4.1-1.3c-0.6-1.3-1.9-2.3-3.4-2.6c-1.6-0.3-3.1,0.3-4.1,1.3
					C5,37.8,6.3,38.8,7.8,39.1z"/>
				<path class="st0" d="M16.6,45.6c1.5-0.4,2.7-1.5,3.2-2.9c-1.1-0.9-2.7-1.3-4.2-0.9c-1.5,0.4-2.7,1.5-3.2,2.9
					C13.5,45.6,15,46,16.6,45.6z"/>
				<path class="st0" d="M23.3,42.3C13,40.5,5.6,31.2,6.3,20.6c0.4-5.7,3-10.6,7-14.1"/>
			</g>
			<g>
				<path class="st0" d="M38,2.1c1.1,1.2,1.6,2.7,1.3,4.2c-1.5,0.2-3.1-0.3-4.2-1.4c-1.1-1.2-1.6-2.7-1.3-4.2
					C35.3,0.4,36.9,0.9,38,2.1z"/>
				<path class="st0" d="M46.2,8.5c-0.1,1.6-1,2.9-2.3,3.6c-1.1-1-1.7-2.4-1.6-4c0.1-1.6,1-2.9,2.3-3.6C45.7,5.5,46.4,6.9,46.2,8.5z
					"/>
				<path class="st0" d="M50.2,18.6c-0.8,1.4-2.2,2.2-3.6,2.3C46,19.6,46,18,46.8,16.6c0.8-1.4,2.2-2.2,3.6-2.3
					C51.1,15.7,51,17.3,50.2,18.6z"/>
				<path class="st0" d="M49.6,29.5c-1.3,0.9-2.9,1.1-4.3,0.6c0-1.5,0.7-2.9,2-3.8c1.3-0.9,2.9-1.1,4.3-0.6
					C51.6,27.2,50.9,28.6,49.6,29.5z"/>
				<path class="st0" d="M44.4,39.1c-1.6,0.3-3.1-0.3-4.1-1.3c0.6-1.3,1.9-2.3,3.4-2.6c1.6-0.3,3.1,0.3,4.1,1.3
					C47.2,37.8,46,38.8,44.4,39.1z"/>
				<path class="st0" d="M35.7,45.6c-1.5-0.4-2.7-1.5-3.2-2.9c1.1-0.9,2.7-1.3,4.2-0.9c1.5,0.4,2.7,1.5,3.2,2.9
					C38.8,45.6,37.2,46,35.7,45.6z"/>
				<path class="st0" d="M29,42.3c10.2-1.8,17.7-11.1,16.9-21.7c-0.4-5.7-3-10.6-7-14.1"/>
			</g>
		</g>
	</g>
</g>
<path fill="#d9c37c" d="M28.1,17.4c-3.6,0-6.3,2.3-6.3,6.5c0,3.6,2.1,4.4,4.4,4.4c1.2,0,2.3-0.3,3.4-1l0.3-1.7h-4.5L26,22h9.1l-1.1,7.1
	c-1.6,2.4-5.3,3.7-8.9,3.7c-5.6,0-9.4-3.6-8.7-9.6C17.3,16.7,22.3,13,28.9,13c2.8,0,5.1,0.7,6.9,2.8L35,20.3h-4.4l0.2-2.3
	C30,17.5,28.9,17.4,28.1,17.4z"/>
</svg>
