<?xml version="1.0" encoding="utf-8"?>
<!-- Generator: Adobe Illustrator 22.1.0, SVG Export Plug-In . SVG Version: 6.00 Build 0)  -->
<svg version="1.1" id="Vrstva_1" xmlns="http://www.w3.org/2000/svg" xmlns:xlink="http://www.w3.org/1999/xlink" x="0px" y="0px"
	 viewBox="0 0 18 18" style="enable-background:new 0 0 18 18;" xml:space="preserve">
<style type="text/css">
	.st0{clip-path:url(#SVGID_2_);}
</style>
<g>
	<defs>
		<rect id="SVGID_1_" width="18" height="18"/>
	</defs>
	<clipPath id="SVGID_2_">
		<use xlink:href="#SVGID_1_"  style="overflow:visible;"/>
	</clipPath>
	<path class="st0" d="M17,0H1C0.4,0,0,0.4,0,1v16c0,0.6,0.4,1,1,1h8.6v-7H7.3V8.3h2.3v-2c0-2.3,1.4-3.6,3.5-3.6c0.7,0,1.4,0,2.1,0.1
		v2.4h-1.4c-1.1,0-1.3,0.5-1.3,1.3v1.7h2.7L14.8,11h-2.3v7H17c0.6,0,1-0.4,1-1V1C18,0.4,17.6,0,17,0"/>
</g>
</svg>
