<?xml version="1.0" encoding="utf-8"?>
<!-- Generator: Adobe Illustrator 22.1.0, SVG Export Plug-In . SVG Version: 6.00 Build 0)  -->
<svg version="1.1" id="icons" xmlns="http://www.w3.org/2000/svg" xmlns:xlink="http://www.w3.org/1999/xlink" x="0px" y="0px"
	 viewBox="0 0 46.4 35" style="enable-background:new 0 0 46.4 35;" xml:space="preserve">
<style type="text/css">
	.st0{fill:none;stroke:#d9c37c;stroke-width:1.2;}
	.st1{fill:none;stroke:#d9c37c;stroke-width:1.2;stroke-linejoin:bevel;}
	.st2{fill:none;stroke:#d9c37c;stroke-width:1.2;stroke-linecap:square;}
</style>
<g>
	<g>
		<g>
			<polyline class="st0" points="45.8,25.4 45.8,0.6 0.6,0.6 0.6,25.4 27.9,25.4 			"/>
			<path class="st0" d="M28.5,13c0,2.9-2.4,5.3-5.3,5.3c-2.9,0-5.3-2.4-5.3-5.3s2.4-5.3,5.3-5.3C26.1,7.8,28.5,10.1,28.5,13z"/>
			<g>
				<g>
					<line class="st0" x1="31.3" y1="13" x2="39" y2="13"/>
					<g>
						<line class="st0" x1="31.3" y1="8.7" x2="35.9" y2="8.7"/>
					</g>
				</g>
				<g>
					<line class="st0" x1="15.1" y1="13" x2="7.4" y2="13"/>
					<g>
						<line class="st0" x1="15.1" y1="17.4" x2="10.5" y2="17.4"/>
						<line class="st0" x1="15.1" y1="8.7" x2="10.5" y2="8.7"/>
					</g>
				</g>
			</g>
			<path class="st0" d="M6.8,1.7c0,2.9-2.3,5.2-5.2,5.2"/>
			<path class="st0" d="M39.7,1.7c0,2.9,2.3,5.2,5.2,5.2"/>
			<path class="st0" d="M6.8,24.4c0-2.9-2.3-5.2-5.2-5.2"/>
		</g>
	</g>
	<g>
		<path class="st0" d="M45.8,25.4c0,4.9-4,8.9-8.9,8.9c-4.9,0-8.9-4-8.9-8.9c0-4.9,4-8.9,8.9-8.9C41.8,16.5,45.8,20.5,45.8,25.4z"/>
		<g>
			<polyline class="st1" points="36.8,29 36.8,20.8 34,23.7 			"/>
			<line class="st0" x1="34.9" y1="29" x2="38.7" y2="29"/>
		</g>
	</g>
</g>
<line class="st2" x1="0.6" y1="28.5" x2="28.2" y2="28.5"/>
</svg>
