<?xml version="1.0" encoding="utf-8"?>
<!-- Generator: Adobe Illustrator 22.1.0, SVG Export Plug-In . SVG Version: 6.00 Build 0)  -->
<svg version="1.1" id="Layer_2" xmlns="http://www.w3.org/2000/svg" xmlns:xlink="http://www.w3.org/1999/xlink" x="0px" y="0px"
	 viewBox="0 0 359.8 359.8" style="enable-background:new 0 0 359.8 359.8;" xml:space="preserve">
<style type="text/css">
	.st0{stroke:#000000;stroke-width:4;stroke-miterlimit:10;}
</style>
<path class="st0" d="M100.3,259.9l-0.2-0.2c50.7,50.5,131.1,92.8,186.6,97.9c1.4,0.1,2.9,0.2,4.3,0.2c12.9,0,25.6-5.4,35-14.7
	l26.7-26.7c3.3-3.3,5.1-7.7,5.1-12.4c0-4.7-1.8-9.1-5.1-12.4l-68.4-68.4c-3.3-3.3-7.7-5.1-12.4-5.1c-4.7,0-9.1,1.8-12.4,5.1l-32,32
	c-2.6,2.6-6.5,3.7-10.1,2.7c-24.9-6.6-52.7-23-72.8-42.8c-19.8-20.1-36.2-47.9-42.8-72.8c-1-3.6,0.1-7.5,2.7-10.1l32-32
	c3.3-3.3,5.1-7.7,5.1-12.4c0-4.7-1.8-9.1-5.1-12.4L68.2,7.1C64.9,3.8,60.5,2,55.8,2c-4.7,0-9.1,1.8-12.4,5.1L16.7,33.8
	C6.2,44.4,0.9,58.7,2.2,73.1c5.1,55.6,47.2,135.8,97.9,186.5 M347.6,311.3L320.9,338c-8.9,8.9-21.5,13.6-33.6,12.5
	c-54-4.9-132.1-46-181.8-95.5l-0.3-0.3l-0.1-0.1C55.4,205,14.2,126.7,9.2,72.5c-1.1-12.3,3.4-24.6,12.5-33.7l26.7-26.7
	c2-2,4.6-3,7.4-3c2.8,0,5.4,1.1,7.4,3l68.4,68.4c2,2,3,4.6,3,7.4c0,2.8-1.1,5.4-3,7.4l-32,32c-4.4,4.4-6.1,10.9-4.5,17
	c6.9,26,24,55.1,44.6,76c20.9,20.6,50,37.7,76,44.6c1.5,0.4,3,0.6,4.5,0.6c4.7,0,9.1-1.8,12.4-5.1l32-32c2-2,4.6-3,7.4-3
	c2.8,0,5.4,1.1,7.4,3l68.4,68.4c2,2,3,4.6,3,7.4C350.7,306.7,349.6,309.3,347.6,311.3z"/>
</svg>
