<?xml version="1.0" encoding="utf-8"?>
<!-- Generator: Adobe Illustrator 22.1.0, SVG Export Plug-In . SVG Version: 6.00 Build 0)  -->
<svg version="1.1" id="Icons" xmlns="http://www.w3.org/2000/svg" xmlns:xlink="http://www.w3.org/1999/xlink" x="0px" y="0px"
	 viewBox="0 0 84.4 83.2" style="enable-background:new 0 0 84.4 83.2;" xml:space="preserve">
<style type="text/css">
	.st0{stroke:#FFFFFF;stroke-miterlimit:10;}
</style>
<g>
	<g>
		<path class="st0" d="M62.1,16.5"/>
	</g>
	<path d="M71.3,20.7c-0.6,0-1.1,0.5-1.1,1.1v2.4c0,0.6,0.5,1.1,1.1,1.1c0.6,0,1.1-0.5,1.1-1.1v-2.4C72.3,21.1,71.9,20.7,71.3,20.7z"
		/>
	<path d="M68.4,26.1H66c-0.6,0-1.1,0.5-1.1,1.1c0,0.6,0.5,1.1,1.1,1.1h2.4c0.6,0,1.1-0.5,1.1-1.1C69.4,26.6,68.9,26.1,68.4,26.1z"/>
	<path d="M72.5,32.5v-2.4c0-0.6-0.5-1.1-1.1-1.1c-0.6,0-1.1,0.5-1.1,1.1v2.4c0,0.6,0.5,1.1,1.1,1.1C72,33.6,72.5,33.1,72.5,32.5z"/>
	<path d="M76.8,28.1c0.6,0,1.1-0.5,1.1-1.1S77.4,26,76.8,26h-2.4c-0.6,0-1.1,0.5-1.1,1.1s0.5,1.1,1.1,1.1H76.8z"/>
	<path d="M6.4,44.3c-0.6,0-1.1,0.5-1.1,1.1v2.4c0,0.6,0.5,1.1,1.1,1.1c0.6,0,1.1-0.5,1.1-1.1v-2.4C7.4,44.8,7,44.3,6.4,44.3z"/>
	<path d="M3.5,49.8H1.1c-0.6,0-1.1,0.5-1.1,1.1c0,0.6,0.5,1.1,1.1,1.1h2.4c0.6,0,1.1-0.5,1.1-1.1C4.5,50.3,4,49.8,3.5,49.8z"/>
	<path d="M7.6,56.2v-2.4c0-0.6-0.5-1.1-1.1-1.1s-1.1,0.5-1.1,1.1v2.4c0,0.6,0.5,1.1,1.1,1.1S7.6,56.8,7.6,56.2z"/>
	<path d="M9.5,51.8h2.4c0.6,0,1.1-0.5,1.1-1.1s-0.5-1.1-1.1-1.1H9.5c-0.6,0-1.1,0.5-1.1,1.1S8.9,51.8,9.5,51.8z"/>
	<path d="M32.2,0c-3.8,0-6.9,3.1-6.9,6.9v43.4L5.7,71.2c-0.2,0.2-0.3,0.5-0.3,0.8c0,0.3,0.1,0.5,0.3,0.7c3.4,3.2,7.3,5.7,11.6,7.5
		l0.1,0.1c0.1,0,0.2,0.1,0.2,0.1c4.6,1.8,9.3,2.8,14.2,2.8c0.3,0.1,0.4,0,0.5,0c9.9-0.1,19.2-3.8,26.3-10.5c0.2-0.2,0.3-0.5,0.3-0.7
		c0-0.3-0.1-0.6-0.3-0.8L39.2,50.4V6.9C39.2,3.1,36.1,0,32.2,0z M27.4,6.9c0-2.7,2.2-4.8,4.8-4.8s4.8,2.2,4.8,4.8v42.8h-3.7V23.4
		c0-0.6-0.5-1.1-1.1-1.1s-1.1,0.5-1.1,1.1v26.3h-3.7V6.9z M56.5,71.9l-0.4,0.3c-2.7,2.3-5.7,4.2-9,5.7l-0.4,0.2l-6-12.8
		c-0.1-0.3-0.3-0.5-0.6-0.6c-0.3-0.1-0.6-0.1-0.8,0c-0.5,0.2-0.8,0.9-0.5,1.4l5.9,12.7l-0.5,0.2c-3.4,1.2-6.8,1.8-10.4,2l-0.5,0V74
		c0-0.6-0.5-1.1-1.1-1.1s-1.1,0.5-1.1,1.1v7.1l-0.5,0c-3.7-0.2-7.3-0.9-10.7-2.1l-0.5-0.2l4.8-10.4c0.2-0.5,0-1.2-0.5-1.4
		c-0.3-0.1-0.5-0.1-0.8,0c-0.3,0.1-0.5,0.3-0.6,0.6L17.4,78L17,77.8c-3.1-1.4-6-3.3-8.6-5.5L8,71.9l18.8-20.1h10.8L56.5,71.9z"/>
	<path d="M33.3,18.9v-1c0-0.6-0.5-1.1-1.1-1.1s-1.1,0.5-1.1,1.1v1c0,0.6,0.5,1.1,1.1,1.1S33.3,19.5,33.3,18.9z"/>
	<path d="M33.3,69.5v-1c0-0.6-0.5-1.1-1.1-1.1s-1.1,0.5-1.1,1.1v1c0,0.6,0.5,1.1,1.1,1.1S33.3,70.1,33.3,69.5z"/>
	<path d="M38.9,62c0.1-0.3,0.1-0.6,0-0.8l-0.4-0.9c-0.1-0.3-0.3-0.5-0.6-0.6c-0.1,0-0.2-0.1-0.4-0.1c-0.2,0-0.3,0-0.4,0.1
		c-0.3,0.1-0.5,0.3-0.6,0.6c-0.1,0.3-0.1,0.6,0,0.8l0.4,0.9c0.2,0.5,0.9,0.8,1.4,0.5C38.6,62.5,38.8,62.3,38.9,62z"/>
	<path d="M26.6,62.6c-0.1-0.3-0.3-0.5-0.6-0.6l0,0c-0.1-0.1-0.3-0.1-0.4-0.1c-0.1,0-0.2,0-0.4,0.1c-0.3,0.1-0.5,0.3-0.6,0.6
		l-0.4,0.9c-0.1,0.3-0.1,0.5,0,0.8c0.1,0.3,0.3,0.5,0.6,0.6c0.5,0.2,1.2,0,1.4-0.5l0.4-0.9C26.6,63.1,26.7,62.8,26.6,62.6z"/>
	<path d="M68.4,74.3c8.8,0,16-7.2,16-16s-7.2-16-16-16c-8.8,0-16,7.2-16,16c0,0.6,0.5,1.1,1.1,1.1s1.1-0.5,1.1-1.1
		c0-7.7,6.2-13.9,13.9-13.9s13.9,6.2,13.9,13.9S76,72.2,68.4,72.2c-0.6,0-1.1,0.5-1.1,1.1S67.8,74.3,68.4,74.3z"/>
	<path d="M57,33.9c-2.7-2.7-7.2-2.7-10,0c-1.3,1.3-2.1,3.1-2.1,5c0,1.9,0.7,3.6,2.1,5c0.4,0.4,1.1,0.4,1.5,0
		c0.2-0.2,0.3-0.5,0.3-0.8s-0.1-0.6-0.3-0.8c-0.9-0.9-1.4-2.2-1.4-3.5c0-1.3,0.5-2.5,1.4-3.5c0.9-0.9,2.2-1.4,3.5-1.4c0,0,0,0,0,0
		c1.3,0,2.5,0.5,3.5,1.4c0.9,0.9,1.4,2.2,1.4,3.5c0,1.3-0.5,2.5-1.4,3.5c-0.2,0.2-0.3,0.5-0.3,0.8s0.1,0.6,0.3,0.8
		c0.4,0.4,1.1,0.4,1.5,0c1.3-1.3,2.1-3.1,2.1-5C59.1,37,58.3,35.2,57,33.9z"/>
</g>
</svg>
