<?xml version="1.0" encoding="utf-8"?>
<!-- Generator: Adobe Illustrator 22.1.0, SVG Export Plug-In . SVG Version: 6.00 Build 0)  -->
<svg version="1.1" id="Vrstva_1" xmlns="http://www.w3.org/2000/svg" xmlns:xlink="http://www.w3.org/1999/xlink" x="0px" y="0px"
	 viewBox="0 0 57 47" style="enable-background:new 0 0 57 47;" xml:space="preserve">
<style type="text/css">
	.st0{clip-path:url(#SVGID_2_);fill:none;stroke:#fff;stroke-linejoin:round;stroke-miterlimit:10;}
</style>
<g>
	<defs>
		<rect id="SVGID_1_" width="57" height="47"/>
	</defs>
	<clipPath id="SVGID_2_">
		<use xlink:href="#SVGID_1_"  style="overflow:visible;"/>
	</clipPath>
	<path class="st0" d="M36.2,12.7c2.5-2.2,5.3-4.1,8.6-5.4c1.7,4.2,2.5,8.6,2.3,12.9"/>
	<line class="st0" x1="30.8" y1="35.4" x2="30.8" y2="35.4"/>
	<path class="st0" d="M10,20.2c-0.2-4.3,0.5-8.6,2.3-12.9c3.2,1.3,6.1,3.2,8.6,5.4"/>
	<path class="st0" d="M38,25.5c0.3-4.3-0.3-8.7-1.8-12.8c-1.6-4.5-4.1-8.6-7.7-12.2c-3.6,3.6-6.1,7.7-7.7,12.2
		c-1.5,4.1-2.1,8.5-1.8,12.8"/>
	<path class="st0" d="M38,25.5c0.3-4.3-0.3-8.7-1.8-12.8c-1.6-4.5-4.1-8.6-7.7-12.2c-3.6,3.6-6.1,7.7-7.7,12.2
		c-1.5,4.1-2.1,8.5-1.8,12.8"/>
	<path class="st0" d="M56.5,18.5c0,15.5-12.5,28-28,28C28.5,31,41,18.5,56.5,18.5z"/>
	<path class="st0" d="M56.5,18.5c0,15.5-12.5,28-28,28C28.5,31,41,18.5,56.5,18.5z"/>
	<path class="st0" d="M56.5,18.5c0,15.5-12.5,28-28,28C28.5,31,41,18.5,56.5,18.5z"/>
	<path class="st0" d="M0.5,18.5c0,15.5,12.5,28,28,28C28.5,31,16,18.5,0.5,18.5z"/>
	<path class="st0" d="M0.5,18.5c0,15.5,12.5,28,28,28C28.5,31,16,18.5,0.5,18.5z"/>
</g>
</svg>
