<?xml version="1.0" encoding="utf-8"?>
<!-- Generator: Adobe Illustrator 22.1.0, SVG Export Plug-In . SVG Version: 6.00 Build 0)  -->
<svg version="1.1" id="Layer_2" xmlns="http://www.w3.org/2000/svg" xmlns:xlink="http://www.w3.org/1999/xlink" x="0px" y="0px"
	 viewBox="0 0 359.8 359.8" style="enable-background:new 0 0 359.8 359.8;" xml:space="preserve">
<style type="text/css">
	.st0{fill:none;stroke:#000000;stroke-width:12;stroke-miterlimit:10;}
</style>
<g>
	<path d="M179.9,12c44.8,0,87,17.5,118.7,49.2c31.7,31.7,49.2,73.9,49.2,118.7s-17.5,87-49.2,118.7c-31.7,31.7-73.9,49.2-118.7,49.2
		s-87-17.5-118.7-49.2C29.5,266.9,12,224.7,12,179.9s17.5-87,49.2-118.7C92.9,29.5,135,12,179.9,12 M179.9,0C80.5,0,0,80.5,0,179.9
		s80.5,179.9,179.9,179.9s179.9-80.5,179.9-179.9S279.2,0,179.9,0L179.9,0z"/>
</g>
<polyline class="st0" points="179.9,72.3 179.9,179.9 254.9,254.9 "/>
</svg>
