<?xml version="1.0" encoding="utf-8"?>
<!-- Generator: Adobe Illustrator 22.1.0, SVG Export Plug-In . SVG Version: 6.00 Build 0)  -->
<svg version="1.1" id="Izolovaný_režim" xmlns="http://www.w3.org/2000/svg" xmlns:xlink="http://www.w3.org/1999/xlink" x="0px"
	 y="0px" viewBox="0 0 99.1 82.9" style="enable-background:new 0 0 99.1 82.9;" xml:space="preserve">
<style type="text/css">
	.st0{fill:none;stroke:#fff;stroke-width:3;}
	.st1{fill:none;stroke:#fff;stroke-width:3;stroke-linejoin:bevel;}
</style>
<g>
	<g>
		<g>
			<rect x="2" y="1.5" class="st0" width="78.8" height="43.3"/>
			<path class="st0" d="M50.5,23.1c0,5.1-4.1,9.2-9.2,9.2c-5.1,0-9.2-4.1-9.2-9.2s4.1-9.2,9.2-9.2C46.4,14,50.5,18.1,50.5,23.1z"/>
			<g>
				<g>
					<line class="st0" x1="55.4" y1="23.1" x2="68.9" y2="23.1"/>
					<g>
						<line class="st0" x1="55.4" y1="15.6" x2="63.5" y2="15.6"/>
						<line class="st0" x1="55.4" y1="30.7" x2="63.5" y2="30.7"/>
					</g>
				</g>
				<g>
					<line class="st0" x1="27.3" y1="23.1" x2="13.8" y2="23.1"/>
					<g>
						<line class="st0" x1="27.3" y1="30.7" x2="19.2" y2="30.7"/>
						<line class="st0" x1="27.3" y1="15.6" x2="19.2" y2="15.6"/>
					</g>
				</g>
			</g>
			<path class="st0" d="M12.9,3.5c0,5-4,9-9,9"/>
			<path class="st0" d="M70,3.5c0,5,4,9,9,9"/>
			<path class="st0" d="M12.9,43c0-5-4-9-9-9"/>
			<path class="st0" d="M70,43c0-5,4-9,9-9"/>
		</g>
	</g>
	<g>
		<g>
			<line class="st0" x1="0" y1="53.1" x2="72.4" y2="53.1"/>
		</g>
	</g>
	<g>
		<g>
			<line class="st0" x1="0" y1="61.4" x2="67.1" y2="61.4"/>
		</g>
	</g>
	<g>
		<g>
			<line class="st0" x1="0" y1="69.8" x2="67.4" y2="69.8"/>
		</g>
	</g>
	<g>
		<path class="st0" d="M97.6,65.8c0,8.6-7,15.6-15.6,15.6c-8.6,0-15.6-7-15.6-15.6c0-8.6,7-15.6,15.6-15.6
			C90.6,50.2,97.6,57.2,97.6,65.8z"/>
		<g>
			<polyline class="st1" points="82,72.1 82,57.7 77,62.8 			"/>
			<line class="st0" x1="78.6" y1="72" x2="85.3" y2="72"/>
		</g>
	</g>
</g>
</svg>
