<?xml version="1.0" encoding="utf-8"?>
<!-- Generator: Adobe Illustrator 22.1.0, SVG Export Plug-In . SVG Version: 6.00 Build 0)  -->
<svg version="1.1" id="Icons" xmlns="http://www.w3.org/2000/svg" xmlns:xlink="http://www.w3.org/1999/xlink" x="0px" y="0px"
	 viewBox="0 0 119.9 62.3" style="enable-background:new 0 0 119.9 62.3;" xml:space="preserve">
<style type="text/css">
	.st0{fill:none;stroke:#fff;stroke-width:3;}
</style>
<g>
	<g>
		<g>
			<path class="st0" d="M25.7,39.2c0.6,0.9,1.5,1.7,2.4,2.3c0-0.6,0.1-1.3,0.4-1.9l1.4-2.7c1-1.9,3.3-2.7,5.2-1.7
				c1.9,1,2.7,3.3,1.7,5.2L35.4,43c-0.3,0.6-0.8,1.1-1.3,1.5l3,1.5c0-0.7,0.1-1.3,0.4-2l3.2-6.4c1-1.9,3.3-2.7,5.2-1.7
				c1.9,0.9,2.7,3.3,1.7,5.2l-3.2,6.4C44,48.2,43.6,48.7,43,49l2.7,1.3c0-0.7,0.1-1.3,0.4-2l4-7.9c0.9-1.9,3.3-2.7,5.2-1.7
				c1.9,1,2.7,3.3,1.7,5.2l-4,7.9c-0.3,0.6-0.8,1.1-1.3,1.5l2.7,1.3c0-0.7,0.1-1.3,0.4-2l1.4-2.7c0.9-1.9,3.3-2.7,5.2-1.7
				c1.9,1,2.7,3.3,1.7,5.2l-1.4,2.7c-0.3,0.6-0.8,1.1-1.3,1.5c0.2,0.1,0.4,0.1,0.6,0.2l5.1,2.5c1.9,1,4.2,0.2,5.2-1.7
				c0.7-1.4,0.5-3-0.4-4.1c0.2-0.3,0.4-0.6,0.6-0.9l3.3,1.6c1.9,0.9,4.2,0.2,5.2-1.7c0.9-1.9,0.2-4.2-1.7-5.2l-3.2-1.6l0.3-0.7
				l7.6,3.8c1.9,0.9,4.2,0.2,5.2-1.7c1-1.9,0.2-4.2-1.7-5.2l-7.6-3.8c0.1-0.2,0.2-0.5,0.3-0.7l11.2,5.6c1.9,1,4.2,0.2,5.2-1.7
				c0.9-1.9,0.2-4.2-1.7-5.2l-19.4-9.7c-1,0-2-0.2-3-0.4c-3.9-0.9-7.1-3-9-5.6l-7.6,0.8l-0.3,1.4c-0.7,3.6-4.3,5.9-7.9,5.2l-2.2-0.4
				c-0.1,0-0.2,0-0.3-0.1l2.7-13.1l9.6-2l4.9-0.9l4.7,1L64.2,9l-0.1,0l-9.6-1l-4.9-0.4l-15.9,5.3"/>
			<g>
				<path class="st0" d="M90.2,12.3l-11.9,4l-17.4-3.8l-14.2,2.9l-0.1,0l-2.7,13.1c0.1,0,0.2,0.1,0.3,0.1l2.2,0.4
					c3.6,0.7,7.1-1.6,7.9-5.2l0.3-1.4l7.5-0.8c0,0,2.3,2.5,3.9,3.5c0,0,0,0,0,0c0.2,0.1,0.3,0.2,0.5,0.3c0,0,0.1,0,0.1,0
					c0.2,0.1,0.3,0.2,0.5,0.3c0,0,0.1,0,0.1,0.1c0.2,0.1,0.3,0.2,0.5,0.2c0.1,0,0.1,0.1,0.2,0.1c0.2,0.1,0.3,0.1,0.4,0.2
					c0.1,0,0.2,0.1,0.3,0.1c0.1,0.1,0.3,0.1,0.4,0.2c0.1,0,0.2,0.1,0.3,0.1c0.1,0,0.2,0.1,0.4,0.1c0.1,0,0.3,0.1,0.4,0.1
					c0.1,0,0.2,0.1,0.3,0.1c0.2,0.1,0.5,0.1,0.7,0.2c0.3,0.1,0.5,0.1,0.8,0.1c0,0,0.1,0,0.1,0c0.2,0,0.4,0.1,0.7,0.1c0,0,0,0,0.1,0
					c0.2,0,0.5,0.1,0.7,0.1h0c0.2,0,0.5,0,0.7,0h0l19.3,9.6l5.2-1.7"/>
				<path class="st0" d="M61.2,48.3c-1.9-1-4.2-0.2-5.2,1.7l-1.4,2.7c-0.9,1.9-0.2,4.2,1.7,5.2c1.9,0.9,4.2,0.2,5.2-1.7l1.4-2.7
					C63.9,51.6,63.1,49.2,61.2,48.3z"/>
				<path class="st0" d="M35,35.2c-1.9-1-4.2-0.2-5.2,1.7l-1.4,2.7c-1,1.9-0.2,4.2,1.7,5.2c1.9,0.9,4.2,0.2,5.2-1.7l1.4-2.7
					C37.7,38.4,36.9,36.1,35,35.2z"/>
				<path class="st0" d="M55.2,38.8c-1.9-1-4.2-0.2-5.2,1.7l-4,7.9c-1,1.9-0.2,4.2,1.7,5.2c1.9,1,4.2,0.2,5.2-1.7l4-7.9
					C57.9,42.1,57.1,39.7,55.2,38.8z"/>
				<path class="st0" d="M45.8,36c-1.9-1-4.2-0.2-5.2,1.7l-3.2,6.4c-0.9,1.9-0.2,4.2,1.7,5.2c1.9,1,4.2,0.2,5.2-1.7l3.2-6.4
					C48.5,39.2,47.7,36.9,45.8,36z"/>
			</g>
		</g>
	</g>
	<g>
		
			<rect x="94.8" y="6.5" transform="matrix(0.9489 -0.3156 0.3156 0.9489 -1.8351 34.0207)" class="st0" width="18.6" height="32.3"/>
	</g>
	
		<rect x="0.2" y="11.5" transform="matrix(0.3158 -0.9488 0.9488 0.3158 -9.0885 33.2781)" class="st0" width="36.8" height="22.8"/>
	<line class="st0" x1="20.8" y1="35.5" x2="16.8" y2="34.1"/>
	<line class="st0" x1="103" y1="33" x2="106.4" y2="31.9"/>
</g>
</svg>
