<?xml version="1.0" encoding="utf-8"?>
<!-- Generator: Adobe Illustrator 22.1.0, SVG Export Plug-In . SVG Version: 6.00 Build 0)  -->
<svg version="1.1" id="Layer_2" xmlns="http://www.w3.org/2000/svg" xmlns:xlink="http://www.w3.org/1999/xlink" x="0px" y="0px"
	 viewBox="0 0 365.5 362.5" style="enable-background:new 0 0 365.5 362.5;" xml:space="preserve">
<style type="text/css">
	.st0{stroke:#000000;stroke-width:2;stroke-miterlimit:10;}
</style>
<path class="st0" d="M355,293l-68.4-68.4c-3.3-3.3-7.7-5.1-12.4-5.1c-4.7,0-9.1,1.8-12.4,5.1l-32,32c-2.6,2.6-6.5,3.7-10.1,2.7
	c-24.9-6.6-52.7-23-72.8-42.8c-19.8-20.1-36.2-47.9-42.8-72.8c-1-3.6,0.1-7.5,2.7-10.1l32-32c3.3-3.3,5.1-7.7,5.1-12.4
	c0-4.7-1.8-9.1-5.1-12.4L70.5,8.5c-3.3-3.3-7.7-5.1-12.4-5.1c-4.7,0-9.1,1.8-12.4,5.1L19.1,35.2C8.5,45.8,3.2,60.1,4.6,74.5
	c5.1,55.6,47.2,135.8,97.9,186.5c-0.2-0.2-0.3-0.4-0.4-0.5l2.9-2l-2.3,2.7l0.2,0.2C153.5,312,233.6,353.9,289,359
	c1.4,0.1,2.9,0.2,4.3,0.2c12.9,0,25.6-5.4,35-14.7l26.7-26.7c3.3-3.3,5.1-7.7,5.1-12.4C360.1,300.7,358.3,296.3,355,293z M350,312.7
	l-26.7,26.7c-8.9,8.9-21.5,13.6-33.6,12.5c-54-4.9-132.1-46-181.8-95.5l-0.3-0.3l-0.1-0.1c-49.7-49.7-90.9-128-95.8-182.2
	C10.5,61.6,15,49.3,24.1,40.2l26.7-26.7c2-2,4.6-3,7.4-3c2.8,0,5.4,1.1,7.4,3l68.4,68.4c2,2,3,4.6,3,7.4c0,2.8-1.1,5.4-3,7.4l-32,32
	c-4.4,4.4-6.1,10.9-4.5,17c6.9,26,24,55.1,44.6,76c20.9,20.6,50,37.7,76,44.6c1.5,0.4,3,0.6,4.5,0.6c4.7,0,9.1-1.8,12.4-5.1l32-32
	c2-2,4.6-3,7.4-3c2.8,0,5.4,1.1,7.4,3L350,298c2,2,3,4.6,3,7.4C353,308.1,352,310.8,350,312.7z"/>
</svg>
