<?xml version="1.0" encoding="utf-8"?>
<!-- Generator: Adobe Illustrator 22.1.0, SVG Export Plug-In . SVG Version: 6.00 Build 0)  -->
<svg version="1.1" id="Main" xmlns="http://www.w3.org/2000/svg" xmlns:xlink="http://www.w3.org/1999/xlink" x="0px" y="0px"
	 viewBox="0 0 640 229" style="enable-background:new 0 0 640 229;" xml:space="preserve">
<style type="text/css">
	.st0{fill:url(#SVGID_1_);}
	.st1{fill:url(#SVGID_2_);}
	.st2{fill:url(#SVGID_3_);}
	.st3{fill:url(#SVGID_4_);}
	.st4{fill:url(#SVGID_5_);}
	.st5{fill:url(#SVGID_6_);}
</style>
<g>
	<linearGradient id="SVGID_1_" gradientUnits="userSpaceOnUse" x1="4.3609" y1="129.7069" x2="394.6299" y2="-12.3394">
		<stop  offset="0" style="stop-color:#E8E8E9"/>
		<stop  offset="6.692784e-02" style="stop-color:#D9DADA"/>
		<stop  offset="0.1948" style="stop-color:#B2B4B5"/>
		<stop  offset="0.2441" style="stop-color:#A1A4A5"/>
		<stop  offset="0.3227" style="stop-color:#B0B2B4"/>
		<stop  offset="0.473" style="stop-color:#D7D8D9"/>
		<stop  offset="0.4906" style="stop-color:#DCDDDD"/>
		<stop  offset="0.8318" style="stop-color:#8A8D8F"/>
		<stop  offset="1" style="stop-color:#C4C6C7"/>
	</linearGradient>
	<path class="st0" d="M106.6,60.3c-23,0-40.5,14.9-40.5,41.5c0,23.2,13.5,28.5,28.3,28.5c7.5,0,14.5-1.9,21.7-6.5l2.2-10.8H89.1
		l4.1-23.6H152l-7.2,45.6c-10.2,15.2-34,23.7-57,23.7c-35.9,0-60.1-22.9-55.7-61.5c4.8-41.7,37.2-65.7,79.6-65.7
		c18.3,0,33,4.8,44.2,18.1l-5.1,29h-28.3l1.5-14.7C118.5,61,111.9,60.3,106.6,60.3z"/>
	<linearGradient id="SVGID_2_" gradientUnits="userSpaceOnUse" x1="27.7855" y1="192.0199" x2="417.5537" y2="50.1559">
		<stop  offset="0" style="stop-color:#E8E8E9"/>
		<stop  offset="6.692784e-02" style="stop-color:#D9DADA"/>
		<stop  offset="0.1948" style="stop-color:#B2B4B5"/>
		<stop  offset="0.2441" style="stop-color:#A1A4A5"/>
		<stop  offset="0.3227" style="stop-color:#B0B2B4"/>
		<stop  offset="0.473" style="stop-color:#D7D8D9"/>
		<stop  offset="0.4906" style="stop-color:#DCDDDD"/>
		<stop  offset="0.8318" style="stop-color:#8A8D8F"/>
		<stop  offset="1" style="stop-color:#C4C6C7"/>
	</linearGradient>
	<path class="st1" d="M199.8,111.9c-1.7,9.4-0.5,18.6,10.2,18.6c10.4,0,14.5-10.2,15.9-18.1l3.2-18.8h-11.3l4.1-23.2h42.9L250,154.5
		c-5.3,30.2-24.2,42.9-52.6,42.9c-26.3,0-40.6-11.4-37.4-35.9l31.8-0.2c-0.5,7,2.7,10.4,10.1,10.4c10.2,0,16-6,17.9-16.6l1.7-9.9
		c-7.3,7.7-13.1,9.6-22.9,9.6c-26.8,0-34.5-17.8-30.2-42.5l3.2-18.8h-11.3l4.1-23.2h42.7L199.8,111.9z"/>
	<linearGradient id="SVGID_3_" gradientUnits="userSpaceOnUse" x1="39.1224" y1="223.4738" x2="429.5916" y2="81.3546">
		<stop  offset="0" style="stop-color:#E8E8E9"/>
		<stop  offset="6.692784e-02" style="stop-color:#D9DADA"/>
		<stop  offset="0.1948" style="stop-color:#B2B4B5"/>
		<stop  offset="0.2441" style="stop-color:#A1A4A5"/>
		<stop  offset="0.3227" style="stop-color:#B0B2B4"/>
		<stop  offset="0.473" style="stop-color:#D7D8D9"/>
		<stop  offset="0.4906" style="stop-color:#DCDDDD"/>
		<stop  offset="0.8318" style="stop-color:#8A8D8F"/>
		<stop  offset="1" style="stop-color:#C4C6C7"/>
	</linearGradient>
	<path class="st2" d="M386.7,108.6c1.4-8.7-2.7-12.5-7.7-12.5c-6.1,0-11.6,4.8-13.1,12.8c-2.6,15.5-5.6,30.9-8.4,46.3
		c-15.7,0-16,0-31.6,0c2.7-15.4,5.6-30.9,8.4-46.6c1.5-9.7-2.4-13.1-6.8-13.1c-8.4,0-13.8,6.3-14.9,13.8l-8.4,45.9h-31.6l10.9-61.3
		h-12l4.4-23.4h38.1l1.2,9.6c7.5-7.9,16.4-11.3,26.3-10.9c8.9,0,16.4,4.1,19.3,12.1C368.7,72.6,380.5,69,392,69
		c20,0,31.2,11.4,26.1,39.3c0,0-5.5,31.6-8.2,47c-15.7,0-16,0-31.6,0C381,139.9,386.7,108.6,386.7,108.6z"/>
</g>
<g>
	<linearGradient id="SVGID_4_" gradientUnits="userSpaceOnUse" x1="377.2711" y1="138.3973" x2="648.7845" y2="3.5165">
		<stop  offset="0.2156" style="stop-color:#C49109"/>
		<stop  offset="0.385" style="stop-color:#FFDB7C"/>
		<stop  offset="0.4337" style="stop-color:#EDE38D"/>
		<stop  offset="0.6617" style="stop-color:#C08D41"/>
		<stop  offset="0.7849" style="stop-color:#C08D41"/>
		<stop  offset="1" style="stop-color:#E3AE5D"/>
	</linearGradient>
	<path class="st3" d="M441.5,93.9h-11.8l4.1-23.4h43l-9,51.9c-1.7,10.2,5,9.9,12.6,8.4l-4.1,23c-28,7.5-45.9,2-40.1-30.9L441.5,93.9
		z M468.8,31.1c7.7,0,14.9,4.6,14.9,13.7c0,12-11.1,18.6-20.5,18.6c-8.4,0-15.5-4.8-15.5-13.7C447.7,37.6,458.6,31.1,468.8,31.1z"/>
	<linearGradient id="SVGID_5_" gradientUnits="userSpaceOnUse" x1="399.6684" y1="183.4828" x2="671.1818" y2="48.602">
		<stop  offset="0.2156" style="stop-color:#C49109"/>
		<stop  offset="0.385" style="stop-color:#FFDB7C"/>
		<stop  offset="0.4337" style="stop-color:#EDE38D"/>
		<stop  offset="0.6617" style="stop-color:#C08D41"/>
		<stop  offset="0.7849" style="stop-color:#C08D41"/>
		<stop  offset="1" style="stop-color:#E3AE5D"/>
	</linearGradient>
	<path class="st4" d="M576.3,122.6c24.2,0,20.7,33.5-6,33.5C546.4,156.1,552.4,122.6,576.3,122.6z M561.6,116l13.7-80.2h33.1
		L593.5,116H561.6z"/>
	<linearGradient id="SVGID_6_" gradientUnits="userSpaceOnUse" x1="391.1932" y1="166.4223" x2="662.7066" y2="31.5415">
		<stop  offset="0.2156" style="stop-color:#C49109"/>
		<stop  offset="0.385" style="stop-color:#FFDB7C"/>
		<stop  offset="0.4337" style="stop-color:#EDE38D"/>
		<stop  offset="0.6617" style="stop-color:#C08D41"/>
		<stop  offset="0.7849" style="stop-color:#C08D41"/>
		<stop  offset="1" style="stop-color:#E3AE5D"/>
	</linearGradient>
	<path class="st5" d="M527.1,95.5h19.1l4.3-24.1h-19l4.3-24.4l-31.8,3.4l-3.7,21h-10.6l-4.3,24.1H496l-4.9,27.7
		c-5.1,26.5,8.5,34.3,25.3,34.3c8.7,0,17.4-1.7,25.3-5.8l-2.7-23.2c-2.9,1.7-6.7,3.1-9.7,3.1c-4.8,0-7.9-2.4-7-8.4L527.1,95.5z"/>
</g>
</svg>
