<?xml version="1.0" encoding="utf-8"?>
<!-- Generator: Adobe Illustrator 22.1.0, SVG Export Plug-In . SVG Version: 6.00 Build 0)  -->
<svg version="1.1" id="Vrstva_1" xmlns="http://www.w3.org/2000/svg" xmlns:xlink="http://www.w3.org/1999/xlink" x="0px" y="0px"
	 viewBox="0 0 13.7 13.7" style="enable-background:new 0 0 13.7 13.7;" xml:space="preserve">
<style type="text/css">
	.st0{fill:#34AAF3;}
	.st1{clip-path:url(#SVGID_2_);fill:#FFFFFF;}
</style>
<rect y="0" class="st0" width="13.7" height="13.7"/>
<g>
	<defs>
		<rect id="SVGID_1_" y="0" width="13.7" height="13.7"/>
	</defs>
	<clipPath id="SVGID_2_">
		<use xlink:href="#SVGID_1_"  style="overflow:visible;"/>
	</clipPath>
	<path class="st1" d="M10.4,4.6C10.2,4.6,10,4.7,9.9,4.7c0.2-0.2,0.3-0.4,0.4-0.6C10.3,4,10.2,4,10.1,4C9.9,4.1,9.7,4.2,9.4,4.3
		c0,0,0,0,0,0c0,0-0.1,0-0.1-0.1C8.9,4,8.6,3.9,8.2,3.9C8,3.9,7.9,3.9,7.7,4C7.2,4.1,6.8,4.5,6.7,5c0,0.2-0.1,0.4,0,0.6c0,0,0,0,0,0
		c0,0,0,0,0,0h0C5.5,5.6,4.5,5,3.8,4.2c0,0-0.1,0-0.1,0C3.5,4.4,3.4,4.7,3.4,5c0,0.4,0.2,0.8,0.5,1.1C3.8,6,3.7,6,3.5,5.9
		c-0.1,0-0.1,0-0.1,0.1c0,0.6,0.4,1.2,0.9,1.4h0c-0.1,0-0.2,0-0.3,0c-0.1,0-0.1,0-0.1,0.1c0.2,0.6,0.7,1,1.2,1.1
		c-0.5,0.3-1,0.5-1.6,0.5H3.4c-0.1,0-0.1,0-0.1,0.1c0,0.1,0,0.1,0.1,0.1C4,9.7,4.7,9.9,5.5,9.9c0.7,0,1.3-0.1,1.8-0.4
		c0.5-0.2,1-0.6,1.3-1C9,8.1,9.3,7.6,9.5,7.1c0.2-0.5,0.3-1,0.3-1.5v0c0-0.1,0-0.2,0.1-0.2c0.2-0.2,0.4-0.4,0.6-0.7
		C10.5,4.6,10.4,4.5,10.4,4.6"/>
</g>
</svg>
