<?xml version="1.0" encoding="utf-8"?>
<!-- Generator: Adobe Illustrator 22.1.0, SVG Export Plug-In . SVG Version: 6.00 Build 0)  -->
<svg version="1.1" id="icons" xmlns="http://www.w3.org/2000/svg" xmlns:xlink="http://www.w3.org/1999/xlink" x="0px" y="0px"
	 viewBox="0 0 37.8 50.2" style="enable-background:new 0 0 37.8 50.2;" xml:space="preserve">
<style type="text/css">
	.st0{fill:none;stroke:#000000;stroke-linejoin:round;stroke-miterlimit:10;}
</style>
<g id="clipboard">
	<g>
		<path class="st0" d="M26.9,6.5h8.4c1.1,0,2,0.9,2,2v39.2c0,1.1-0.9,2-2,2H2.5c-1.1,0-2-0.9-2-2V8.5c0-1.1,0.9-2,2-2h8.4"/>
		<line class="st0" x1="14.6" y1="20.5" x2="31.2" y2="20.5"/>
		<line class="st0" x1="14.6" y1="29.5" x2="31.2" y2="29.5"/>
		<line class="st0" x1="14.6" y1="38.5" x2="31.2" y2="38.5"/>
		<line class="st0" x1="6.6" y1="20.5" x2="10.6" y2="20.5"/>
		<line class="st0" x1="6.6" y1="29.5" x2="10.6" y2="29.5"/>
		<line class="st0" x1="6.6" y1="38.5" x2="10.6" y2="38.5"/>
		<path class="st0" d="M26.9,2.5v8h-16v-8h4.5c0.7-1.2,2-2,3.5-2s2.8,0.8,3.5,2H26.9z"/>
	</g>
</g>
</svg>
