<?xml version="1.0" encoding="utf-8"?>
<!-- Generator: Adobe Illustrator 22.1.0, SVG Export Plug-In . SVG Version: 6.00 Build 0)  -->
<svg version="1.1" id="Icons" xmlns="http://www.w3.org/2000/svg" xmlns:xlink="http://www.w3.org/1999/xlink" x="0px" y="0px"
	 viewBox="0 0 104.2 89.9" style="enable-background:new 0 0 104.2 89.9;" xml:space="preserve">
<style type="text/css">
	.st0{fill:none;stroke:#fff;stroke-width:2;}
</style>
<g>
	<path class="st0" d="M51.1,60.9v20.9c0,3.8,3.1,6.9,6.9,6.9h27.7c3.8,0,6.9-3.1,6.9-6.9V25.3H58"/>
	<line class="st0" x1="92.6" y1="39" x2="58" y2="39"/>
	<line class="st0" x1="58" y1="81.7" x2="85.7" y2="81.7"/>
	<line class="st0" x1="0" y1="80.7" x2="27.7" y2="80.7"/>
	<line class="st0" x1="50.4" y1="18.4" x2="26.6" y2="18.4"/>
	<g>
		<path class="st0" d="M55,1h-5.5H24.1h-5.5v1.2c1.7,3.4,2.7,7.7,2.7,12.5s-1,9.2-2.7,12.5"/>
		<path class="st0" d="M57.1,39.7c0,11.6-9.4,21-21,21c-11.6,0-21-9.4-21-21c0-5.3,2.5-9.6,4.4-14.1"/>
		<path class="st0" d="M17,1h5.5h25.4h5.5v1.2c-1.7,3.4-2.7,7.7-2.7,12.5s1,9.2,2.7,12.5"/>
		<path class="st0" d="M15,39.7c0,11.6,9.4,21,21,21c11.6,0,21-9.4,21-21c0-5.3-2.5-9.6-4.4-14.1"/>
	</g>
	<path class="st0" d="M26.2,28.5c-0.4,0.9-0.8,1.8-1.2,2.7c-1.5,3.3-2.6,5.8-2.6,8.5c0,7.5,6.1,13.5,13.5,13.5"/>
	<line class="st0" x1="23.8" y1="88.9" x2="48.3" y2="88.9"/>
	<line class="st0" x1="81.7" y1="50.9" x2="81.7" y2="54.5"/>
	<line class="st0" x1="75.7" y1="65.9" x2="75.7" y2="69.5"/>
	<line class="st0" x1="59.1" y1="54.9" x2="59.1" y2="58.5"/>
	<polyline class="st0" points="58.8,77.9 86.6,11.9 103.6,25.9 	"/>
	<line class="st0" x1="36" y1="89.7" x2="36" y2="61.4"/>
</g>
</svg>
