<?xml version="1.0" encoding="utf-8"?>
<!-- Generator: Adobe Illustrator 22.1.0, SVG Export Plug-In . SVG Version: 6.00 Build 0)  -->
<svg version="1.1" id="Vrstva_1" xmlns="http://www.w3.org/2000/svg" xmlns:xlink="http://www.w3.org/1999/xlink" x="0px" y="0px"
	 viewBox="0 0 46.4 46.4" style="enable-background:new 0 0 46.4 46.4;" xml:space="preserve">
<style type="text/css">
	.st0{clip-path:url(#SVGID_2_);fill:none;stroke:#d9c37c;stroke-width:1.2;}
</style>
<g>
	<defs>
		<rect id="SVGID_1_" y="0" width="46.4" height="46.4"/>
	</defs>
	<clipPath id="SVGID_2_">
		<use xlink:href="#SVGID_1_"  style="overflow:visible;"/>
	</clipPath>
	<path class="st0" d="M45.8,26.8l0-6.3L40.2,20c-0.4-2.1-1.2-4-2.2-5.8l3.8-4.5l-4.5-4.5l-4.3,3.7c-1.7-1.2-3.6-2-5.6-2.5l-0.5-5.8
		h-6.3L20,6.2c-2.1,0.4-4,1.2-5.8,2.2L9.7,4.7L5.3,9.2l3.7,4.3c-1.2,1.7-2,3.6-2.5,5.6l-5.8,0.5l0,6.3l5.6,0.5
		c0.4,2.1,1.2,4,2.2,5.8l-3.8,4.5l4.5,4.5l4.3-3.7c1.7,1.2,3.6,2,5.6,2.5l0.5,5.8H26l0.5-5.6c2.1-0.4,4-1.2,5.8-2.2l4.5,3.8l4.5-4.5
		l-3.7-4.3c1.2-1.7,2-3.6,2.5-5.6L45.8,26.8z"/>
	<circle class="st0" cx="23.2" cy="23.2" r="8.7"/>
</g>
</svg>
