<?xml version="1.0" encoding="utf-8"?>
<!-- Generator: Adobe Illustrator 22.1.0, SVG Export Plug-In . SVG Version: 6.00 Build 0)  -->
<svg version="1.1" id="Layer_2" xmlns="http://www.w3.org/2000/svg" xmlns:xlink="http://www.w3.org/1999/xlink" x="0px" y="0px"
	 viewBox="0 0 289.4 438.7" style="enable-background:new 0 0 289.4 438.7;" xml:space="preserve">
<style type="text/css">
	.st0{stroke:#000000;stroke-width:4;stroke-miterlimit:10;}
</style>
<g>
	<path class="st0" d="M148.5,2.1L145,2c-0.1,0-0.2,0-0.3,0l-0.1,0l-3.7,0v0.1C64,4.3,2,67.6,2,145c0,20.5,4.5,40.1,14,61.7
		c7,15.7,121,214.2,125.9,222.6l3.1,5.3l3.1-5.3c4.8-8.4,118.4-206.9,125.3-222.6c9.6-21.5,14-41.1,14-61.7
		C287.4,67.6,225.5,4.3,148.5,2.1z M266.9,203.8c-6.2,14-103.3,184.1-122,216.6C126.3,387.9,28.7,217.8,22.5,203.8
		C13.3,183.2,9.1,164.5,9.1,145C9.1,70.3,69.8,9.4,144.5,9.1l0.1,0l0.4,0C219.6,9.4,280.4,70.3,280.4,145
		C280.4,164.5,276.1,183.2,266.9,203.8z"/>
	<path class="st0" d="M144.7,78.9C110.1,78.9,82,107,82,141.6c0,34.6,28.2,62.8,62.8,62.8c34.6,0,62.8-28.2,62.8-62.8
		C207.5,107,179.3,78.9,144.7,78.9z M144.7,197.3c-30.7,0-55.7-25-55.7-55.7c0-30.7,25-55.7,55.7-55.7c30.7,0,55.7,25,55.7,55.7
		C200.4,172.3,175.4,197.3,144.7,197.3z"/>
</g>
</svg>
