<?xml version="1.0" encoding="utf-8"?>
<!-- Generator: Adobe Illustrator 22.1.0, SVG Export Plug-In . SVG Version: 6.00 Build 0)  -->
<svg version="1.1" id="Layer_2" xmlns="http://www.w3.org/2000/svg" xmlns:xlink="http://www.w3.org/1999/xlink" x="0px" y="0px"
	 viewBox="0 0 293 444" style="enable-background:new 0 0 293 444;" xml:space="preserve">
<style type="text/css">
	.st0{stroke:#000000;stroke-width:2;stroke-miterlimit:10;}
</style>
<g>
	<path class="st0" d="M150,4.7l-3.5-0.1c-0.1,0-0.2,0-0.3,0l-0.1,0l-3.7,0v0.1C65.5,6.9,3.5,70.3,3.5,147.6c0,20.5,4.5,40.1,14,61.7
		c7,15.7,121,214.2,125.9,222.6l3.1,5.3l3.1-5.3c4.8-8.4,118.4-206.9,125.3-222.6c9.6-21.5,14-41.1,14-61.7
		C288.9,70.3,226.9,6.9,150,4.7z M268.4,206.4c-6.2,14-103.3,184.1-122,216.6C127.8,390.5,30.2,220.4,24,206.4
		c-9.2-20.6-13.4-39.3-13.4-58.8C10.5,73,71.3,12,145.9,11.7l0.1,0l0.4,0C221.1,12,281.8,73,281.8,147.6
		C281.8,167.1,277.6,185.8,268.4,206.4z"/>
	<path class="st0" d="M146.2,81.5c-34.6,0-62.8,28.2-62.8,62.8c0,34.6,28.2,62.8,62.8,62.8c34.6,0,62.8-28.2,62.8-62.8
		C209,109.6,180.8,81.5,146.2,81.5z M146.2,200c-30.7,0-55.7-25-55.7-55.7c0-30.7,25-55.7,55.7-55.7c30.7,0,55.7,25,55.7,55.7
		C201.9,175,176.9,200,146.2,200z"/>
</g>
</svg>
