<?xml version="1.0" encoding="utf-8"?>
<!-- Generator: Adobe Illustrator 22.1.0, SVG Export Plug-In . SVG Version: 6.00 Build 0)  -->
<svg version="1.1" id="icons" xmlns="http://www.w3.org/2000/svg" xmlns:xlink="http://www.w3.org/1999/xlink" x="0px" y="0px"
	 viewBox="0 0 46.4 42.5" style="enable-background:new 0 0 46.4 42.5;" xml:space="preserve">
<style type="text/css">
	.st0{fill:none;stroke:#d9c37c;stroke-width:1.2;stroke-linejoin:round;stroke-miterlimit:10;}
</style>
<g id="dumbbell">
	<g>
		<rect x="17" y="26.2" class="st0" width="12.5" height="4.2"/>
		<path class="st0" d="M31.5,36.6L31.5,36.6c-1.1,0-2.1-0.9-2.1-2.1V22.1c0-1.1,0.9-2.1,2.1-2.1h0c1.1,0,2.1,0.9,2.1,2.1v12.5
			C33.6,35.7,32.7,36.6,31.5,36.6z"/>
		<path class="st0" d="M35.7,34.5L35.7,34.5c-1.1,0-2.1-0.9-2.1-2.1v-8.3c0-1.1,0.9-2.1,2.1-2.1h0c1.1,0,2.1,0.9,2.1,2.1v8.3
			C37.8,33.6,36.8,34.5,35.7,34.5z"/>
		<path class="st0" d="M14.9,36.6L14.9,36.6c1.1,0,2.1-0.9,2.1-2.1V22.1c0-1.1-0.9-2.1-2.1-2.1h0c-1.1,0-2.1,0.9-2.1,2.1v12.5
			C12.8,35.7,13.7,36.6,14.9,36.6z"/>
		<path class="st0" d="M10.7,34.5L10.7,34.5c1.1,0,2.1-0.9,2.1-2.1v-8.3c0-1.1-0.9-2.1-2.1-2.1h0c-1.1,0-2.1,0.9-2.1,2.1v8.3
			C8.6,33.6,9.6,34.5,10.7,34.5z"/>
	</g>
</g>
<g>
	<g>
		<line class="st0" x1="33.9" y1="4.4" x2="12.5" y2="4.4"/>
		<polyline class="st0" points="6.9,4.4 0.6,4.4 0.6,14.2 45.8,14.2 45.8,4.4 39.3,4.4 		"/>
		<polyline class="st0" points="1.5,17.5 1.5,41.9 44.9,41.9 44.9,17.5 		"/>
		<g>
			<rect x="7.1" y="0.6" class="st0" width="3.8" height="8.5"/>
			<rect x="35.5" y="0.6" class="st0" width="3.8" height="8.5"/>
		</g>
	</g>
</g>
</svg>
