<?xml version="1.0" encoding="utf-8"?>
<!-- Generator: Adobe Illustrator 22.1.0, SVG Export Plug-In . SVG Version: 6.00 Build 0)  -->
<svg version="1.1" id="Vrstva_1" xmlns="http://www.w3.org/2000/svg" xmlns:xlink="http://www.w3.org/1999/xlink" x="0px" y="0px"
	 viewBox="0 0 60 49" style="enable-background:new 0 0 60 49;" xml:space="preserve">
<style type="text/css">
	.st0{clip-path:url(#SVGID_2_);fill:none;stroke:#000000;stroke-linecap:round;stroke-linejoin:round;stroke-miterlimit:10;}
	.st1{clip-path:url(#SVGID_2_);fill:none;stroke:#000000;stroke-linejoin:round;stroke-miterlimit:10;}
</style>
<g>
	<defs>
		<rect id="SVGID_1_" width="60" height="49"/>
	</defs>
	<clipPath id="SVGID_2_">
		<use xlink:href="#SVGID_1_"  style="overflow:visible;"/>
	</clipPath>
	<rect x="48" y="26.5" class="st0" width="8" height="22"/>
	<rect x="4" y="26.5" class="st0" width="8" height="22"/>
	<path class="st0" d="M52,26.5v-19c0-3.9-3.1-7-7-7s-7,3.1-7,7v25c0,4.4-3.6,8-8,8s-8-3.6-8-8v-25c0-3.9-3.1-7-7-7s-7,3.1-7,7v19"/>
	<line class="st1" x1="44" y1="26.5" x2="60" y2="26.5"/>
	<line class="st1" x1="0" y1="26.5" x2="16" y2="26.5"/>
	<line class="st1" x1="48" y1="40.5" x2="56" y2="40.5"/>
	<line class="st1" x1="4" y1="40.5" x2="12" y2="40.5"/>
</g>
</svg>
