<?xml version="1.0" encoding="utf-8"?>
<!-- Generator: Adobe Illustrator 22.1.0, SVG Export Plug-In . SVG Version: 6.00 Build 0)  -->
<svg version="1.1" id="Vrstva_1" xmlns="http://www.w3.org/2000/svg" xmlns:xlink="http://www.w3.org/1999/xlink" x="0px" y="0px"
	 viewBox="0 0 18 18" style="enable-background:new 0 0 18 18;" xml:space="preserve">
<style type="text/css">
	.st0{clip-path:url(#SVGID_2_);}
</style>
<g>
	<defs>
		<rect id="SVGID_1_" y="0" width="18" height="18"/>
	</defs>
	<clipPath id="SVGID_2_">
		<use xlink:href="#SVGID_1_"  style="overflow:visible;"/>
	</clipPath>
	<path class="st0" d="M9,4.4C6.4,4.4,4.4,6.4,4.4,9c0,2.6,2.1,4.6,4.6,4.6c2.6,0,4.6-2.1,4.6-4.6C13.6,6.4,11.5,4.4,9,4.4 M9,12
		c-1.7,0-3-1.3-3-3c0-1.7,1.3-3,3-3s3,1.3,3,3C12,10.7,10.7,12,9,12"/>
	<path class="st0" d="M13.8,3.1c0.6,0,1.1,0.5,1.1,1.1c0,0.6-0.5,1.1-1.1,1.1c-0.6,0-1.1-0.5-1.1-1.1C12.7,3.6,13.2,3.1,13.8,3.1"/>
	<path class="st0" d="M17.5,3.1c-0.5-1.2-1.4-2.2-2.6-2.6c-0.7-0.3-1.4-0.4-2.2-0.4C11.7,0,11.4,0,9,0C6.6,0,6.2,0,5.3,0.1
		c-0.7,0-1.5,0.2-2.2,0.4C1.9,0.9,0.9,1.9,0.5,3.1C0.2,3.8,0.1,4.5,0.1,5.3C0,6.3,0,6.6,0,9s0,2.8,0.1,3.7c0,0.7,0.2,1.5,0.4,2.2
		c0.5,1.2,1.4,2.2,2.6,2.6C3.8,17.8,4.5,18,5.3,18C6.3,18,6.6,18,9,18c2.4,0,2.8,0,3.7-0.1c0.7,0,1.5-0.2,2.2-0.4
		c1.2-0.5,2.2-1.4,2.6-2.6c0.3-0.7,0.4-1.4,0.4-2.2c0-1,0.1-1.3,0.1-3.7s0-2.8-0.1-3.7C17.9,4.6,17.8,3.8,17.5,3.1 M16.3,12.6
		c0,0.6-0.1,1.1-0.3,1.7c-0.3,0.8-0.9,1.4-1.7,1.7c-0.5,0.2-1.1,0.3-1.7,0.3c-1,0-1.2,0.1-3.7,0.1c-2.4,0-2.7,0-3.7-0.1
		c-0.6,0-1.1-0.1-1.7-0.3c-0.8-0.3-1.4-0.9-1.7-1.7c-0.2-0.5-0.3-1.1-0.3-1.7c0-1-0.1-1.2-0.1-3.7c0-2.4,0-2.7,0.1-3.7
		c0-0.6,0.1-1.1,0.3-1.7c0.3-0.8,0.9-1.4,1.7-1.7c0.5-0.2,1.1-0.3,1.7-0.3c1,0,1.2-0.1,3.7-0.1c2.4,0,2.7,0,3.7,0.1
		c0.6,0,1.1,0.1,1.7,0.3c0.8,0.3,1.4,0.9,1.7,1.7c0.2,0.5,0.3,1.1,0.3,1.7c0,1,0.1,1.2,0.1,3.7C16.4,11.4,16.4,11.7,16.3,12.6
		L16.3,12.6L16.3,12.6z"/>
</g>
</svg>
