<?xml version="1.0" encoding="utf-8"?>
<!-- Generator: Adobe Illustrator 22.1.0, SVG Export Plug-In . SVG Version: 6.00 Build 0)  -->
<svg version="1.1" id="Vrstva_1" xmlns="http://www.w3.org/2000/svg" xmlns:xlink="http://www.w3.org/1999/xlink" x="0px" y="0px"
	 viewBox="0 0 57 33" style="enable-background:new 0 0 57 33;" xml:space="preserve">
<style type="text/css">
	.st0{fill:none;stroke:#fff;stroke-linejoin:round;stroke-miterlimit:10;}
	.st1{clip-path:url(#SVGID_2_);fill:none;stroke:#fff;stroke-linejoin:round;stroke-miterlimit:10;}
</style>
<rect x="16.5" y="12.5" class="st0" width="24" height="8"/>
<g>
	<defs>
		<rect id="SVGID_1_" width="57" height="33"/>
	</defs>
	<clipPath id="SVGID_2_">
		<use xlink:href="#SVGID_1_"  style="overflow:visible;"/>
	</clipPath>
	<path class="st1" d="M44.5,32.5L44.5,32.5c-2.2,0-4-1.8-4-4v-24c0-2.2,1.8-4,4-4c2.2,0,4,1.8,4,4v24C48.5,30.7,46.7,32.5,44.5,32.5
		z"/>
	<path class="st1" d="M52.5,28.5L52.5,28.5c-2.2,0-4-1.8-4-4v-16c0-2.2,1.8-4,4-4c2.2,0,4,1.8,4,4v16C56.5,26.7,54.7,28.5,52.5,28.5
		z"/>
	<path class="st1" d="M12.5,32.5L12.5,32.5c2.2,0,4-1.8,4-4v-24c0-2.2-1.8-4-4-4s-4,1.8-4,4v24C8.5,30.7,10.3,32.5,12.5,32.5z"/>
	<path class="st1" d="M4.5,28.5L4.5,28.5c2.2,0,4-1.8,4-4v-16c0-2.2-1.8-4-4-4s-4,1.8-4,4v16C0.5,26.7,2.3,28.5,4.5,28.5z"/>
</g>
</svg>
