<?xml version="1.0" encoding="utf-8"?>
<!-- Generator: Adobe Illustrator 22.1.0, SVG Export Plug-In . SVG Version: 6.00 Build 0)  -->
<svg version="1.1" id="Icons" xmlns="http://www.w3.org/2000/svg" xmlns:xlink="http://www.w3.org/1999/xlink" x="0px" y="0px"
	 viewBox="0 0 102 96.4" style="enable-background:new 0 0 102 96.4;" xml:space="preserve">
<style type="text/css">
	.st0{fill:none;stroke:#000;stroke-width:2;}
</style>
<g>
	<path class="st0" d="M89.5,38.4c3.6,0,6.5,2.5,6.5,5.5s-2.9,5.5-6.5,5.5"/>
	<path class="st0" d="M78.2,68.3h10.2c4.7,0,8.6,3.6,8.6,8v20"/>
	<path class="st0" d="M42.1,96.4v-20c0-4.4,3.8-8,8.6-8h10.2"/>
	<polyline class="st0" points="78.2,62.1 78.2,68.1 69.5,73.1 60.9,68.1 60.9,62.1 	"/>
	<path class="st0" d="M59.5,10.9c0-5.5,4.4-9.9,9.9-9.9c5.5,0,9.9,4.4,9.9,9.9"/>
	<path class="st0" d="M89.6,36.3v7.2c0,11.2-9.1,20.2-20.2,20.2l0,0c-11.2,0-20.2-9.1-20.2-20.2v-7.2"/>
	<line class="st0" x1="69.5" y1="78.3" x2="69.5" y2="81.6"/>
	<line class="st0" x1="69.5" y1="85" x2="69.5" y2="88.3"/>
	<path class="st0" d="M69.4,7.1c-11.2,0-20.2,9.1-20.2,20.2v3.8h26.3l3.5-6.1l3.5,6.1h7.1v-3.8C89.6,16.1,80.6,7.1,69.4,7.1z"/>
	<path class="st0" d="M65.7,51.7c0.9,1.5,2.3,2.5,3.9,2.5c1.6,0,3-1,3.9-2.5"/>
	<line class="st0" x1="61.1" y1="41.7" x2="57.4" y2="41.7"/>
	<line class="st0" x1="81.5" y1="41.7" x2="77.8" y2="41.7"/>
	<line class="st0" x1="0" y1="95" x2="102" y2="95"/>
	<line class="st0" x1="91.7" y1="84.4" x2="78.3" y2="84.4"/>
	<path class="st0" d="M29.9,90.9c0-6.1-4.9-11-11-11s-11,4.9-11,11"/>
	<line class="st0" x1="18.9" y1="78.9" x2="18.9" y2="74.9"/>
	<line class="st0" x1="18.9" y1="70.9" x2="18.9" y2="66.9"/>
	<line class="st0" x1="10.8" y1="73" x2="8.8" y2="69.6"/>
	<line class="st0" x1="4.8" y1="79" x2="1.4" y2="77"/>
	<line class="st0" x1="33" y1="79" x2="36.5" y2="77"/>
	<line class="st0" x1="27" y1="73" x2="29" y2="69.6"/>
</g>
</svg>
