<?xml version="1.0" encoding="utf-8"?>
<!-- Generator: Adobe Illustrator 22.1.0, SVG Export Plug-In . SVG Version: 6.00 Build 0)  -->
<svg version="1.1" id="Vrstva_1" xmlns="http://www.w3.org/2000/svg" xmlns:xlink="http://www.w3.org/1999/xlink" x="0px" y="0px"
	 viewBox="0 0 576.8 166.3" style="enable-background:new 0 0 576.8 166.3;" xml:space="preserve">
<style type="text/css">
	.st0{clip-path:url(#SVGID_2_);fill:#2B241B;}
</style>
<g>
	<defs>
		<rect id="SVGID_1_" width="576.8" height="166.3"/>
	</defs>
	<clipPath id="SVGID_2_">
		<use xlink:href="#SVGID_1_"  style="overflow:visible;"/>
	</clipPath>
	<path class="st0" d="M239.5,156.4c0,0.3-0.3,0.5-0.6,0.5h-4c-0.3,0-0.4-0.2-0.4-0.5l3.1-16.1c0-0.3,0.3-0.5,0.6-0.5h6.9
		c5,0,7.8,1.9,7,5.7c-0.8,3.8-4.2,5.7-9.3,5.7h-2.5L239.5,156.4z M244.1,143.2h-2l-0.9,4.9h2c2.4,0,3.8-0.6,4.1-2.4
		C247.7,143.8,246.5,143.2,244.1,143.2"/>
	<path class="st0" d="M270.5,156.2c0.2,0.3-0.1,0.8-0.5,0.8h-3.9c-0.4,0-0.8-0.2-0.9-0.4l-2.9-5.8h-2.5l-1.1,5.8
		c0,0.3-0.3,0.5-0.6,0.5h-3.9c-0.3,0-0.4-0.2-0.4-0.5l3.1-16.1c0-0.3,0.3-0.5,0.6-0.5h7.1c4.7,0,7.7,1.7,7,5.4
		c-0.5,2.4-2.1,3.9-4.5,4.7L270.5,156.2z M262.7,147.5c2.1,0,3.5-0.7,3.8-2.2c0.3-1.5-0.8-2.2-3-2.2h-2.4l-0.9,4.4H262.7z"/>
	<path class="st0" d="M281.4,143.3l-0.6,3.3h8c0.3,0,0.4,0.2,0.4,0.5l-0.5,2.4c-0.1,0.3-0.3,0.5-0.6,0.5h-8l-0.7,3.6h8.8
		c0.3,0,0.5,0.2,0.4,0.5l-0.5,2.4c0,0.3-0.3,0.5-0.6,0.5h-13.2c-0.3,0-0.4-0.2-0.4-0.5l3.1-16.1c0-0.3,0.3-0.5,0.6-0.5h13
		c0.3,0,0.4,0.2,0.4,0.5l-0.5,2.4c-0.1,0.3-0.3,0.5-0.6,0.5H281.4z"/>
	<path class="st0" d="M303.1,151.8c-0.3,0-0.5-0.2-0.7-0.4l-3.3-6.1l-2.2,11.1c0,0.3-0.3,0.5-0.6,0.5h-3.6c-0.3,0-0.5-0.2-0.4-0.5
		l3.1-16.1c0-0.3,0.3-0.5,0.6-0.5h4.5c0.5,0,0.9,0.2,1.1,0.6l3.7,6.8l6.4-6.8c0.3-0.4,0.8-0.6,1.3-0.6h4.5c0.3,0,0.4,0.2,0.4,0.5
		l-3.1,16.1c0,0.3-0.3,0.5-0.6,0.5h-3.6c-0.3,0-0.4-0.2-0.4-0.5l2.2-11.1l-5.7,6.1c-0.2,0.2-0.5,0.4-0.9,0.4H303.1z"/>
	<path class="st0" d="M327.3,139.9c0.3,0,0.4,0.2,0.4,0.5l-3.1,16.1c0,0.3-0.3,0.5-0.6,0.5h-4c-0.3,0-0.4-0.2-0.4-0.5l3.1-16.1
		c0-0.3,0.3-0.5,0.6-0.5H327.3z"/>
	<path class="st0" d="M330.5,149.9l1.9-9.6c0-0.3,0.3-0.5,0.6-0.5h4c0.3,0,0.4,0.2,0.4,0.5l-1.8,9.5c-0.5,2.5,0.4,3.8,3.2,3.8
		c2.8,0,4.2-1.3,4.7-3.8l1.8-9.5c0-0.3,0.3-0.5,0.6-0.5h4c0.3,0,0.4,0.2,0.4,0.5l-1.9,9.6c-0.9,4.9-5,7.3-10.3,7.3
		S329.6,154.8,330.5,149.9"/>
	<path class="st0" d="M362,151.8c-0.3,0-0.5-0.2-0.7-0.4l-3.3-6.1l-2.2,11.1c0,0.3-0.3,0.5-0.6,0.5h-3.6c-0.3,0-0.5-0.2-0.4-0.5
		l3.1-16.1c0-0.3,0.3-0.5,0.6-0.5h4.5c0.5,0,0.9,0.2,1.1,0.6l3.7,6.8l6.4-6.8c0.3-0.4,0.8-0.6,1.3-0.6h4.5c0.3,0,0.4,0.2,0.4,0.5
		l-3.1,16.1c0,0.3-0.3,0.5-0.6,0.5h-3.6c-0.3,0-0.4-0.2-0.4-0.5l2.2-11.1l-5.7,6.1c-0.2,0.2-0.5,0.4-0.9,0.4H362z"/>
	<path class="st0" d="M394.4,156.4c0,0.3-0.3,0.5-0.6,0.5h-4c-0.3,0-0.4-0.2-0.4-0.5l3.1-16.1c0-0.3,0.3-0.5,0.6-0.5h13
		c0.3,0,0.4,0.2,0.4,0.5l-0.5,2.4c-0.1,0.3-0.3,0.5-0.6,0.5h-8.6l-0.6,3.3h8c0.3,0,0.4,0.2,0.4,0.5l-0.5,2.4
		c-0.1,0.3-0.3,0.5-0.6,0.5h-8L394.4,156.4z"/>
	<path class="st0" d="M414.9,139.9c0.3,0,0.4,0.2,0.4,0.5l-3.1,16.1c0,0.3-0.3,0.5-0.6,0.5h-4c-0.3,0-0.4-0.2-0.4-0.5l3.1-16.1
		c0-0.3,0.3-0.5,0.6-0.5H414.9z"/>
	<path class="st0" d="M422.4,143.4h-5.2c-0.3,0-0.4-0.2-0.4-0.5l0.5-2.5c0-0.3,0.3-0.5,0.6-0.5h15.3c0.3,0,0.4,0.2,0.4,0.5l-0.5,2.5
		c0,0.3-0.3,0.5-0.6,0.5h-5.2l-2.5,13.1c0,0.3-0.3,0.5-0.6,0.5h-3.9c-0.3,0-0.5-0.2-0.4-0.5L422.4,143.4z"/>
	<path class="st0" d="M439.1,145.6l-2.1,10.8c0,0.3-0.3,0.5-0.6,0.5h-3.6c-0.3,0-0.4-0.2-0.4-0.5l3.1-16.1c0-0.3,0.3-0.5,0.6-0.5
		h4.5c0.4,0,0.8,0.2,1,0.5l5.1,10.8l2.1-10.8c0-0.3,0.3-0.5,0.6-0.5h3.6c0.3,0,0.4,0.2,0.4,0.5l-3.1,16.1c0,0.3-0.3,0.5-0.6,0.5
		h-4.5c-0.4,0-0.9-0.2-1-0.5L439.1,145.6z"/>
	<path class="st0" d="M462.7,143.3l-0.6,3.3h8c0.3,0,0.4,0.2,0.4,0.5l-0.5,2.4c-0.1,0.3-0.3,0.5-0.6,0.5h-8l-0.7,3.6h8.8
		c0.3,0,0.5,0.2,0.4,0.5l-0.5,2.4c0,0.3-0.3,0.5-0.6,0.5h-13.2c-0.3,0-0.4-0.2-0.4-0.5l3.1-16.1c0-0.3,0.3-0.5,0.6-0.5h13
		c0.3,0,0.4,0.2,0.4,0.5l-0.5,2.4c-0.1,0.3-0.3,0.5-0.6,0.5H462.7z"/>
	<path class="st0" d="M479.6,153.7c2.6,0,3.5-0.5,3.6-1.5c0.2-0.9-0.5-1.4-3.7-2.3c-3.6-1-5-2.6-4.4-5.3c0.6-3.3,3.4-5,8.6-5
		c2,0,3.7,0.2,5.4,0.6c0.3,0.1,0.5,0.3,0.4,0.7l-0.7,2.4c-0.1,0.3-0.4,0.5-0.7,0.4c-1.2-0.4-2.9-0.6-4.4-0.6c-2.6,0-3.3,0.5-3.5,1.3
		c-0.2,0.9,0.5,1.4,3.6,2.3c3.8,1.2,5.1,2.7,4.6,5.4c-0.6,3.4-3.3,5.2-9,5.2c-2.2,0-3.9-0.2-5.8-0.8c-0.4-0.1-0.5-0.4-0.4-0.7
		l0.7-2.4c0.1-0.3,0.4-0.5,0.7-0.4C475.9,153.4,477.7,153.7,479.6,153.7"/>
	<path class="st0" d="M497.3,153.7c2.6,0,3.5-0.5,3.6-1.5c0.2-0.9-0.5-1.4-3.7-2.3c-3.6-1-5-2.6-4.4-5.3c0.6-3.3,3.4-5,8.6-5
		c2,0,3.7,0.2,5.4,0.6c0.3,0.1,0.5,0.3,0.4,0.7l-0.7,2.4c-0.1,0.3-0.4,0.5-0.7,0.4c-1.2-0.4-2.9-0.6-4.4-0.6c-2.6,0-3.3,0.5-3.5,1.3
		c-0.2,0.9,0.5,1.4,3.6,2.3c3.8,1.2,5.1,2.7,4.6,5.4c-0.6,3.4-3.3,5.2-9,5.2c-2.2,0-3.9-0.2-5.8-0.8c-0.4-0.1-0.5-0.4-0.4-0.7
		l0.7-2.4c0.1-0.3,0.4-0.5,0.7-0.4C493.7,153.4,495.4,153.7,497.3,153.7"/>
	<path class="st0" d="M75,29.2c-23,0-40.5,14.9-40.5,41.5c0,23.2,13.5,28.5,28.3,28.5c7.5,0,14.5-1.9,21.7-6.5l2.2-10.8H57.5
		l4.1-23.6h58.7l-7.2,45.6c-10.2,15.2-34,23.7-57,23.7c-35.9,0-60.1-22.9-55.7-61.5C5.3,24.6,37.7,0.5,80.1,0.5
		c18.3,0,33,4.8,44.2,18.1l-5.1,29H90.8L92.4,33C86.9,29.9,80.3,29.2,75,29.2"/>
	<path class="st0" d="M168.2,80.8c-1.7,9.4-0.5,18.6,10.2,18.6c10.4,0,14.5-10.2,15.9-18.1l3.2-18.8h-11.3l4.1-23.2h42.9l-14.9,84.2
		c-5.3,30.2-24.2,42.9-52.6,42.9c-26.3,0-40.6-11.4-37.4-35.9l31.8-0.2c-0.5,7,2.7,10.4,10.1,10.4c10.2,0,16-6,17.9-16.6l1.7-9.9
		c-7.3,7.7-13.1,9.6-22.9,9.6c-26.8,0-34.5-17.8-30.2-42.5l3.2-18.8h-11.3l4.1-23.2h42.7L168.2,80.8z"/>
	<path class="st0" d="M355.1,77.5c1.4-8.7-2.7-12.5-7.7-12.5c-6.1,0-11.6,4.8-13.1,12.8c-2.6,15.5-5.6,30.9-8.4,46.3h-31.6
		c2.7-15.4,5.6-30.9,8.4-46.6c1.5-9.7-2.4-13.1-6.8-13.1c-8.4,0-13.8,6.3-14.9,13.8l-8.4,45.9H241l10.9-61.3h-12l4.4-23.4h38.1
		l1.2,9.6c7.5-7.9,16.4-11.3,26.3-10.9c8.9,0,16.4,4.1,19.3,12.1c7.9-8.7,19.6-12.3,31.1-12.3c20,0,31.2,11.4,26.1,39.3
		c0,0-5.5,31.6-8.2,47h-31.6C349.4,108.8,355.1,77.5,355.1,77.5"/>
	<path class="st0" d="M409.9,62.8h-11.8l4.1-23.4h43l-9,51.9c-1.7,10.2,5,9.9,12.6,8.4l-4.1,23c-28,7.5-45.9,2-40.1-30.9L409.9,62.8
		z M437.2,0c7.7,0,14.9,4.6,14.9,13.7c0,12-11.1,18.6-20.5,18.6c-8.4,0-15.5-4.8-15.5-13.7C416.1,6.5,427,0,437.2,0"/>
	<path class="st0" d="M544.7,91.5c24.2,0,20.7,33.5-6,33.5C514.8,125,520.8,91.5,544.7,91.5 M530,84.9l13.7-80.2h33.1l-14.9,80.2
		H530z"/>
	<path class="st0" d="M495.5,64.4h19.1l4.3-24.1h-18.9l4.3-24.4l-31.8,3.4l-3.7,21h-10.6l-4.3,24.1h10.6L459.5,92
		c-5.1,26.5,8.5,34.3,25.3,34.3c8.7,0,17.4-1.7,25.3-5.8l-2.7-23.2c-2.9,1.7-6.7,3.1-9.7,3.1c-4.8,0-7.9-2.4-7-8.4L495.5,64.4z"/>
</g>
</svg>
