<?xml version="1.0" encoding="utf-8"?>
<!-- Generator: Adobe Illustrator 22.1.0, SVG Export Plug-In . SVG Version: 6.00 Build 0)  -->
<svg version="1.1" id="Vrstva_1" xmlns="http://www.w3.org/2000/svg" xmlns:xlink="http://www.w3.org/1999/xlink" x="0px" y="0px"
	 viewBox="0 0 13.7 13.7" style="enable-background:new 0 0 13.7 13.7;" xml:space="preserve">
<style type="text/css">
	.st0{fill:#3B5998;}
	.st1{clip-path:url(#SVGID_2_);fill:#FFFFFF;}
</style>
<rect y="0" class="st0" width="13.7" height="13.7"/>
<g>
	<defs>
		<rect id="SVGID_1_" y="0" width="13.7" height="13.7"/>
	</defs>
	<clipPath id="SVGID_2_">
		<use xlink:href="#SVGID_1_"  style="overflow:visible;"/>
	</clipPath>
	<path class="st1" d="M8.8,13.7l0-4.7h1.6c0.1,0,0.3-0.1,0.3-0.3L11,7.2c0-0.2-0.1-0.3-0.3-0.3H8.8V5.6c0-0.6,0.2-1,1-1h0.8
		c0.2,0,0.3-0.1,0.3-0.3V3.1c0-0.2-0.1-0.3-0.3-0.3H9.4c-1.5,0-2.6,0.9-2.6,2.6v1.5H5.6C5.4,6.9,5.3,7,5.3,7.2l0,1.5
		C5.3,8.9,5.4,9,5.6,9h1.2l0,4.7H8.8z"/>
</g>
</svg>
