<?xml version="1.0" encoding="utf-8"?>
<!-- Generator: Adobe Illustrator 22.1.0, SVG Export Plug-In . SVG Version: 6.00 Build 0)  -->
<svg version="1.1" id="Vrstva_1" xmlns="http://www.w3.org/2000/svg" xmlns:xlink="http://www.w3.org/1999/xlink" x="0px" y="0px"
	 viewBox="0 0 13.7 13.7" style="enable-background:new 0 0 13.7 13.7;" xml:space="preserve">
<style type="text/css">
	.st0{clip-path:url(#SVGID_2_);fill:url(#SVGID_3_);}
	.st1{clip-path:url(#SVGID_5_);fill:#FFFFFF;}
</style>
<g>
	<defs>
		<rect id="SVGID_1_" y="0" width="13.7" height="13.7"/>
	</defs>
	<clipPath id="SVGID_2_">
		<use xlink:href="#SVGID_1_"  style="overflow:visible;"/>
	</clipPath>
	
		<radialGradient id="SVGID_3_" cx="0" cy="13.7411" r="1" gradientTransform="matrix(10.1146 -15.1718 -15.1718 -10.1146 209.0624 153.6058)" gradientUnits="userSpaceOnUse">
		<stop  offset="0" style="stop-color:#F7E000"/>
		<stop  offset="4.343428e-02" style="stop-color:#F7C900"/>
		<stop  offset="0.1" style="stop-color:#F6B000"/>
		<stop  offset="0.1346" style="stop-color:#F6A700"/>
		<stop  offset="0.3169" style="stop-color:#E66149"/>
		<stop  offset="0.355" style="stop-color:#E4544D"/>
		<stop  offset="0.4254" style="stop-color:#DE3259"/>
		<stop  offset="0.5045" style="stop-color:#D70568"/>
		<stop  offset="0.6606" style="stop-color:#BC0090"/>
		<stop  offset="0.7609" style="stop-color:#A014A7"/>
		<stop  offset="0.8706" style="stop-color:#8528BC"/>
		<stop  offset="1" style="stop-color:#5456DA"/>
	</radialGradient>
	<polygon class="st0" points="-6.3,9.5 4.2,-6.3 20.1,4.2 9.5,20.1 	"/>
</g>
<g>
	<defs>
		<rect id="SVGID_4_" y="0" width="13.7" height="13.7"/>
	</defs>
	<clipPath id="SVGID_5_">
		<use xlink:href="#SVGID_4_"  style="overflow:visible;"/>
	</clipPath>
	<path class="st1" d="M8.6,2.5H5.1c-1.4,0-2.6,1.2-2.6,2.6v3.5c0,1.4,1.2,2.6,2.6,2.6h3.5c1.4,0,2.6-1.2,2.6-2.6V5.1
		C11.2,3.7,10,2.5,8.6,2.5 M10.3,8.6c0,0.9-0.8,1.7-1.7,1.7H5.1c-0.9,0-1.7-0.8-1.7-1.7V5.1c0-0.9,0.8-1.7,1.7-1.7h3.5
		c0.9,0,1.7,0.8,1.7,1.7V8.6z"/>
	<path class="st1" d="M6.9,4.6c-1.2,0-2.2,1-2.2,2.2s1,2.2,2.2,2.2s2.2-1,2.2-2.2S8.1,4.6,6.9,4.6 M6.9,8.2c-0.8,0-1.4-0.6-1.4-1.4
		s0.6-1.4,1.4-1.4s1.4,0.6,1.4,1.4S7.6,8.2,6.9,8.2"/>
	<path class="st1" d="M9.1,4.1c-0.3,0-0.5,0.2-0.5,0.5c0,0.3,0.2,0.5,0.5,0.5c0.3,0,0.5-0.2,0.5-0.5C9.7,4.4,9.4,4.1,9.1,4.1"/>
</g>
</svg>
